<?xml version="1.0" encoding="UTF-8" standalone="no"?>
<!-- Created with Inkscape (http://www.inkscape.org/) -->

<svg
   width="131.70018mm"
   height="126.25596mm"
   viewBox="0 0 131.70018 126.25596"
   version="1.1"
   id="svg1"
   xml:space="preserve"
   xmlns="http://www.w3.org/2000/svg"
   xmlns:svg="http://www.w3.org/2000/svg"><defs
     id="defs1" /><g
     id="layer1"
     transform="translate(-259.99934,-84.71195)"><path
       style="fill:#f9f9f9"
       d="m 260.57961,210.90283 c -0.0525,-0.0981 -0.0472,-5.70607 0.005,-5.75871 0.0302,-0.0302 0.64429,-0.0397 2.56144,-0.0397 1.38694,0 3.95237,-0.01 5.70097,-0.022 l 3.17926,-0.022 2.51485,-3.99074 c 1.38317,-2.19491 2.51932,-4.00188 2.52477,-4.0155 0.006,-0.0136 -0.0989,-0.0742 -0.23185,-0.13462 -2.4991,-1.13556 -4.90186,-2.69364 -7.07548,-4.5881 -0.55098,-0.48022 -1.92303,-1.8362 -2.40202,-2.3739 -4.07383,-4.57309 -6.54136,-10.07586 -7.20618,-16.07028 -0.13146,-1.18532 -0.15203,-1.62307 -0.151,-3.2128 10e-4,-1.66633 0.0335,-2.24476 0.19955,-3.56057 0.63167,-5.00505 2.51237,-9.65408 5.54045,-13.69578 2.00631,-2.6779 4.64853,-5.14371 7.39023,-6.89682 l 0.37942,-0.24261 0.10384,-0.25583 c 0.43824,-1.07961 1.21672,-2.13783 2.14091,-2.91021 0.8701,-0.72718 2.03291,-1.29505 3.14874,-1.53774 0.10475,-0.0228 0.19045,-0.0451 0.19045,-0.0496 0,-0.005 -0.28319,-0.453 -0.6293,-0.99666 -0.34612,-0.54365 -0.62931,-1.01968 -0.62931,-1.05784 -10e-6,-0.0382 0.0261,-0.0915 0.058,-0.1185 0.0319,-0.027 0.6616,-0.44105 1.39938,-0.92009 0.73779,-0.47905 1.35331,-0.88177 1.36784,-0.89495 0.0145,-0.0132 -1.01247,-1.65456 -2.28223,-3.64754 -1.26975,-1.99297 -2.34733,-3.70556 -2.39461,-3.80575 -0.0755,-0.1601 -0.086,-0.2244 -0.086,-0.53069 0,-0.32728 0.007,-0.36202 0.1092,-0.57028 0.15228,-0.30928 0.31266,-0.454 0.94547,-0.85321 0.30321,-0.19128 0.54766,-0.35825 0.54323,-0.37105 -0.024,-0.0691 -8.12691,-12.77497 -8.148,-12.77645 -0.0138,-9.8e-4 -0.15132,0.0796 -0.30554,0.17912 -0.42899,0.27674 -0.47301,0.29496 -0.71264,0.29496 -0.23324,0 -0.37896,-0.0556 -0.54091,-0.20638 -0.0516,-0.048 -0.31216,-0.43011 -0.57908,-0.8491 l -0.48531,-0.7618 -0.0121,-0.25159 c -0.0139,-0.28837 0.0422,-0.43683 0.23167,-0.61301 0.16013,-0.14893 7.73717,-4.96328 7.89061,-5.01359 0.29965,-0.0983 0.69257,0.0392 0.87578,0.30626 0.16178,0.23588 0.859,1.3376 0.92036,1.45433 0.0837,0.1592 0.0778,0.50175 -0.0116,0.67296 -0.087,0.16667 -0.19805,0.26951 -0.48292,0.44728 -0.14127,0.0882 -0.2192,0.15715 -0.20863,0.18469 0.0146,0.0381 8.0901,12.72922 8.12003,12.76112 0.006,0.007 0.2617,-0.14519 0.56784,-0.33729 0.65134,-0.4087 0.81985,-0.47057 1.20909,-0.44389 0.33113,0.0227 0.62556,0.15488 0.84597,0.37979 0.10567,0.10783 3.38975,5.23638 9.96163,15.55648 5.39219,8.46758 9.84005,15.46461 9.88413,15.54894 0.22683,0.43396 0.21813,0.99632 -0.0222,1.43797 -0.0489,0.0899 -0.16929,0.24379 -0.26748,0.34197 -0.0982,0.0982 -0.17317,0.17852 -0.16664,0.17852 0.007,0 0.66769,-0.0589 1.46924,-0.13083 5.53938,-0.49728 12.05415,-0.8291 16.28754,-0.82958 0.56017,-6e-5 1.0188,-0.004 1.01919,-0.008 0.003,-0.0374 0.1639,-6.53294 0.16434,-6.64088 l 5.7e-4,-0.14076 h -0.18435 c -0.23218,0 -0.31248,-0.0411 -0.31248,-0.15995 0,-0.0503 0.11355,-0.40372 0.25233,-0.78548 0.13878,-0.38175 0.26393,-0.77607 0.27812,-0.87626 0.0311,-0.21989 0.11709,-4.09989 0.0914,-4.12558 -0.01,-0.01 -0.36632,-0.062 -0.79195,-0.11574 -4.55394,-0.57473 -8.29807,-1.78195 -11.19061,-3.6082 -3.3477,-2.11363 -5.57351,-5.16886 -6.5756,-9.02594 -0.33862,-1.30336 -0.52827,-2.58253 -0.61128,-4.12304 -0.0304,-0.56396 -0.0284,-0.61658 0.0247,-0.66841 0.0835,-0.0815 1.24237,-0.24058 2.37616,-0.32624 0.62873,-0.0475 2.24568,-0.0482 2.83189,-10e-4 2.30018,0.18428 4.22343,0.74556 5.99501,1.7496 3.6944,2.09377 6.34167,6.16278 7.8486,12.06376 l 0.15648,0.61274 0.0228,-0.49682 c 0.13557,-2.95746 0.60516,-5.21037 1.48949,-7.14598 l 0.11727,-0.2567 h -0.16136 c -0.17789,0 -0.26546,-0.0581 -0.26543,-0.17625 3e-5,-0.1129 0.44118,-1.39692 0.71895,-2.09257 1.80724,-4.52606 4.38648,-7.14957 7.73018,-7.86286 1.11686,-0.23825 2.54853,-0.23417 3.87503,0.011 0.80355,0.14854 1.67158,0.3945 1.73237,0.49086 0.0476,0.0754 -0.11748,0.90048 -0.32435,1.62127 -0.52465,1.82796 -1.36799,3.33316 -2.55366,4.55784 -1.3646,1.40947 -3.07347,2.36953 -5.20009,2.92143 -1.35077,0.35055 -2.45633,0.49113 -4.12364,0.52435 l -1.07645,0.0215 -0.22114,0.49683 c -0.25047,0.56274 -0.59784,1.5717 -0.76971,2.23571 -0.42018,1.62332 -0.61917,3.27303 -0.66721,5.5313 -0.0203,0.95305 -0.0187,0.9889 0.0651,1.45735 0.29992,1.67667 0.2987,1.62296 0.037,1.62296 h -0.14017 l -0.0211,0.62103 c -0.0116,0.34157 -0.0297,1.07563 -0.0401,1.63124 l -0.019,1.01021 0.2954,-0.67899 c 0.7125,-1.63777 1.2771,-2.75294 2.04993,-4.04895 1.62559,-2.72605 3.65754,-4.93725 5.78969,-6.30046 0.35047,-0.22407 0.37154,-0.24342 0.30048,-0.27579 -0.14546,-0.0663 -0.32725,-0.25547 -0.40415,-0.42061 -0.19989,-0.42924 -0.0192,-0.95472 0.39869,-1.15915 l 0.1757,-0.086 2.19938,0.003 c 2.03314,0.003 2.23237,-0.002 2.6356,-0.0629 0.75942,-0.11439 1.34057,-0.14514 2.3894,-0.12643 1.27288,0.0227 2.19022,0.13145 3.4195,0.40533 0.95755,0.21333 2.46062,0.66125 2.56321,0.76384 0.0654,0.0654 0.0653,0.0704 -0.0161,0.44599 -0.99592,4.59723 -3.12774,8.13189 -6.37685,10.57313 -0.34768,0.26123 -1.20905,0.83545 -1.39854,0.93232 -0.13393,0.0685 -0.15189,0.003 0.24938,0.9136 1.09142,2.4777 2.21421,4.35687 3.18775,5.33523 0.52069,0.52327 0.94394,0.78279 1.40353,0.8606 0.45383,0.0768 1.41306,-0.0174 2.56906,-0.25246 0.56519,-0.11492 1.90372,-0.44341 2.35778,-0.57863 l 0.22368,-0.0666 -0.12681,-0.27258 c -0.0697,-0.14993 -0.11707,-0.28261 -0.10517,-0.29485 0.0308,-0.0317 1.92403,-0.77834 3.1185,-1.22991 4.46598,-1.68833 8.27477,-2.87091 10.59143,-3.28851 l 0.30717,-0.0554 0.19438,-0.29059 c 0.37775,-0.56475 0.42928,-0.85105 0.271,-1.50583 -0.12791,-0.52913 -0.28026,-0.99906 -0.40448,-1.24761 l -0.0938,-0.18771 -0.22447,-0.0188 c -1.04723,-0.0877 -1.22241,-0.12759 -1.40551,-0.31964 -0.0666,-0.0699 -0.15398,-0.21359 -0.19412,-0.31934 -0.0645,-0.16985 -0.0707,-0.23284 -0.0535,-0.54005 0.018,-0.32183 0.13156,-1.33281 0.17113,-1.52386 0.0141,-0.0679 -0.0373,-0.14848 -0.28177,-0.44219 -0.27384,-0.32894 -0.29896,-0.37101 -0.29896,-0.50062 0,-0.12062 0.025,-0.17266 0.16945,-0.35273 0.0932,-0.11618 0.22532,-0.29321 0.2936,-0.3934 0.12716,-0.18659 0.36499,-0.63682 0.36499,-0.69095 0,-0.0166 -0.0577,-0.11758 -0.1282,-0.2244 -0.0705,-0.10682 -0.1617,-0.28365 -0.20265,-0.39295 -0.0929,-0.24793 -0.12507,-0.72454 -0.0687,-1.01767 0.0534,-0.27798 0.23408,-0.63783 0.43128,-0.85909 l 0.16115,-0.1808 -0.11408,-0.22984 c -0.26558,-0.53511 -0.27073,-1.14014 -0.0141,-1.65835 0.0733,-0.14808 0.20125,-0.34479 0.28427,-0.43713 0.17921,-0.19933 0.48969,-0.41381 0.71468,-0.49373 l 0.1619,-0.0575 v -0.28869 c 0,-0.37605 0.0453,-0.58431 0.19318,-0.88814 0.3062,-0.62912 1.00408,-1.04449 1.71979,-1.02359 l 0.24587,0.007 0.0757,-0.18631 c 0.22554,-0.55494 0.70723,-0.98704 1.26115,-1.13132 0.24959,-0.065 0.70818,-0.065 0.95777,0 0.10709,0.0279 0.28123,0.0968 0.38697,0.15319 l 0.19225,0.10247 0.19134,-0.1751 c 0.40382,-0.36953 0.97901,-0.54603 1.52058,-0.4666 0.47361,0.0695 0.98868,0.38269 1.25047,0.76046 l 0.091,0.13136 0.18822,-0.0673 c 0.23325,-0.0834 0.74505,-0.11488 1.002,-0.0615 0.70472,0.1463 1.29155,0.73605 1.43659,1.44375 l 0.0407,0.19873 0.21909,0.0245 c 1.09956,0.12302 1.85567,1.20236 1.60084,2.28519 l -0.0447,0.18992 0.15286,0.0893 c 0.2167,0.12659 0.51772,0.42313 0.64834,0.6387 0.18323,0.30239 0.25858,0.5696 0.26201,0.92914 0.005,0.48064 -0.1111,0.83717 -0.39029,1.20293 l -0.11781,0.15434 0.13248,0.20498 c 0.34617,0.53558 0.38249,1.25634 0.0932,1.84927 -0.13586,0.27846 -0.53189,0.68072 -0.79644,0.80896 l -0.18887,0.0916 0.0198,0.3254 c 0.0246,0.4041 -0.0221,0.66264 -0.17943,0.99323 -0.15664,0.3291 -0.52351,0.70018 -0.84762,0.85734 -0.21986,0.10661 -0.61239,0.19906 -0.85508,0.20139 -0.11504,10e-4 -0.12194,0.008 -0.1587,0.15376 -0.0727,0.28883 -0.26444,0.61413 -0.49566,0.84105 -0.37493,0.36794 -0.778,0.5301 -1.31681,0.52976 -0.30966,-2e-4 -0.44835,-0.0264 -0.73365,-0.13851 l -0.17537,-0.0689 -0.17241,0.18312 c -0.34567,0.36716 -0.74985,0.55308 -1.26024,0.57971 -0.58231,0.0304 -1.01888,-0.13056 -1.41826,-0.52288 -0.2125,-0.20873 -0.23803,-0.22436 -0.31175,-0.19077 -0.0442,0.0201 -0.0803,0.0558 -0.0803,0.0794 0,0.0659 0.21595,0.54179 0.36889,0.81291 0.33437,0.59271 0.9246,1.35058 1.46352,1.87921 l 0.21583,0.2117 0.62368,0.092 c 1.77331,0.26168 3.17353,0.68865 4.66452,1.42239 1.56702,0.77115 2.79411,1.67676 4.15694,3.06787 0.83195,0.84922 1.52132,1.69026 2.31517,2.82455 0.34085,0.48702 0.40051,0.59053 0.38391,0.6661 -0.0165,0.0751 0.0304,0.15892 0.2911,0.52109 0.82721,1.14893 1.59834,2.57129 2.22559,4.10516 0.12372,0.30254 0.12505,0.30421 0.20117,0.25434 0.058,-0.038 0.0927,-0.0416 0.14284,-0.0148 0.1011,0.0541 0.10942,0.1327 0.0404,0.38161 l -0.0633,0.22816 0.0974,0.26412 c 0.25289,0.68587 0.67715,2.23689 0.85935,3.14161 l 0.0778,0.38628 0.73018,0.2223 c 0.9426,0.28695 2.79056,0.86815 2.90683,0.91421 0.0495,0.0196 0.0988,0.0633 0.10948,0.0971 0.0231,0.0729 -0.0282,0.18082 -0.099,0.20796 -0.0277,0.0106 -0.61314,-0.15757 -1.30095,-0.37378 -1.23269,-0.38751 -2.24105,-0.69765 -2.26827,-0.69765 -0.008,0 0.0121,0.16138 0.044,0.35862 0.096,0.59464 0.18888,1.37474 0.24903,2.09238 0.0636,0.75832 0.0822,2.82992 0.0353,3.92491 l -0.0269,0.62931 0.23629,0.39746 c 0.27953,0.47021 0.67418,1.26664 0.8429,1.70104 0.28003,0.72098 0.41768,1.50843 0.35111,2.00865 -0.0546,0.40994 -0.36311,1.27014 -0.68906,1.92098 -0.26761,0.53434 -0.61724,0.978 -0.87648,1.1122 -0.14604,0.0756 -0.38958,0.0829 -0.51972,0.0156 -0.36493,-0.18872 -0.62916,-0.92724 -0.78811,-2.20278 l -0.0266,-0.2138 -0.15622,0.26348 c -0.24332,0.41039 -0.3888,0.54501 -0.58896,0.54501 -0.23487,0 -0.38875,-0.26331 -0.46665,-0.79851 -0.0874,-0.60009 -0.0464,-2.05807 0.1072,-3.82196 0.13151,-1.50968 0.0494,-2.12341 -0.49981,-3.73393 -0.21353,-0.62621 -0.5679,-1.54924 -0.59431,-1.54803 -0.0112,5.2e-4 -0.14461,0.30234 -0.29643,0.67072 -0.38703,0.93913 -0.50073,1.16402 -0.59523,1.17742 -0.0948,0.0134 -0.17207,-0.0473 -0.17207,-0.13526 0,-0.0367 0.12588,-0.36053 0.27972,-0.71972 0.15384,-0.3592 0.32013,-0.7559 0.36954,-0.88155 0.11291,-0.2872 0.13217,-0.31127 0.24908,-0.31127 0.0524,0 0.0953,-0.009 0.0953,-0.0199 0,-0.0109 -0.0866,-0.20097 -0.19254,-0.4223 -0.44631,-0.93277 -1.26223,-2.20246 -2.3441,-3.64776 -0.0773,-0.10323 -0.13614,-0.12056 -2.31567,-0.68158 -0.63759,-0.16412 -1.18765,-0.30707 -1.22236,-0.31766 -0.0614,-0.0188 -0.0625,0.007 -0.0405,0.96997 0.0851,3.72279 0.39673,6.03538 0.96611,7.16908 0.0786,0.15649 0.25439,0.48574 0.39067,0.73166 0.52982,0.95612 0.91338,1.84174 1.11689,2.57889 0.0577,0.20891 0.1124,0.40592 0.1216,0.4378 0.0106,0.0366 0.0494,0.058 0.10562,0.058 0.17672,0 0.21383,0.12317 0.0978,0.3247 l -0.0705,0.12254 0.13502,0.67894 c 0.27385,1.377 0.36894,2.21436 0.39385,3.46828 0.0119,0.59971 0.004,1.10403 -0.0208,1.40767 -0.11634,1.39688 -0.40638,2.52556 -0.91315,3.55345 -0.39476,0.80068 -0.8067,1.37475 -1.42132,1.98069 -0.56539,0.5574 -1.06213,0.83661 -2.10205,1.18151 -1.21154,0.40182 -2.68865,0.70811 -5.75102,1.19252 -1.68205,0.26606 -2.90228,0.46709 -3.45488,0.56917 -0.29709,0.0549 -0.37074,0.0792 -0.35606,0.11744 0.0102,0.0265 0.0185,0.068 0.0185,0.0921 0,0.0515 0.30505,0.0765 1.19238,0.0976 0.94411,0.0225 2.40041,0.1863 3.56813,0.40134 1.79497,0.33054 3.59327,0.88297 5.22953,1.60647 1.16046,0.51313 2.75034,1.3845 3.06766,1.68131 0.19427,0.18172 0.34884,0.48575 0.38178,0.75091 l 0.0246,0.19833 0.14896,0.0207 c 0.0819,0.0114 0.2831,0.0308 0.44705,0.0432 l 0.29809,0.0226 -0.19045,-0.13654 c -0.29832,-0.21388 -0.30982,-0.1894 0.50526,-1.07527 1.0073,-1.09477 1.94289,-1.81112 2.43126,-1.86152 0.16036,-0.0165 0.19999,-0.006 0.45364,0.12646 0.9289,0.48327 3.28266,2.458 6.78563,5.69294 1.49528,1.38087 2.08601,1.95407 2.15676,2.09276 0.20424,0.40033 0.0457,0.89327 -0.34483,1.07201 -0.29252,0.1339 -0.75168,0.19156 -1.52957,0.19207 -1.2762,8.5e-4 -2.61561,-0.20308 -4.53766,-0.69088 -1.45498,-0.36926 -3.85202,-1.11501 -4.23467,-1.31747 -0.21946,-0.11611 -0.39052,-0.31554 -0.47523,-0.55403 l -0.0551,-0.15508 -0.9935,-0.0235 c -0.93571,-0.0221 -0.99544,-0.02 -1.02683,0.0361 -0.0888,0.15866 -0.3461,0.38436 -0.54809,0.48076 l -0.21816,0.10412 -1.34151,0.0591 c -4.54009,0.19993 -8.81099,0.52086 -11.62576,0.8736 -4.99332,0.62575 -9.94757,0.83492 -13.34749,0.56354 l -0.57912,-0.0462 -0.36485,0.14357 c -0.75058,0.29536 -1.6041,0.58942 -1.65459,0.57004 -0.0287,-0.011 -0.0697,-0.0584 -0.091,-0.10518 -0.0607,-0.13324 0.0216,-0.18244 0.72549,-0.43374 0.35004,-0.12497 0.62578,-0.23577 0.61275,-0.24623 -0.013,-0.0104 -0.26783,-0.053 -0.56623,-0.0946 -0.2984,-0.0416 -0.79615,-0.12673 -1.10611,-0.18921 -0.30996,-0.0625 -0.56612,-0.10956 -0.56925,-0.10462 -0.003,0.005 -0.0484,0.0953 -0.1007,0.20089 -0.16616,0.33558 -0.50456,0.58047 -0.89628,0.64863 -0.58384,0.10159 -2.37341,0.22357 -3.97251,0.27077 -2.86364,0.0845 -7.30393,-0.17849 -7.86759,-0.46605 -0.32625,-0.16644 -0.49998,-0.45028 -0.52208,-0.85298 -0.0141,-0.25667 -0.008,-0.28761 0.0912,-0.48983 0.0865,-0.17576 0.16884,-0.27164 0.44305,-0.51606 1.50197,-1.33882 4.20736,-2.87703 7.2592,-4.1274 l 0.39746,-0.16284 0.0403,-0.49399 c 0.11039,-1.35398 0.40154,-2.46544 0.94067,-3.59085 0.59431,-1.24064 1.33522,-2.26013 2.50883,-3.45218 l 0.61069,-0.62028 -0.0464,-1.44982 c -0.0575,-1.79866 -0.0594,-5.81948 -0.003,-6.91488 0.10456,-2.03752 0.2499,-3.49973 0.48763,-4.90591 0.63348,-3.74704 1.83519,-5.92172 3.57623,-6.47175 0.44998,-0.14216 1.15127,-0.0893 1.99038,0.14988 2.01524,0.57455 5.26606,2.32527 9.32694,5.02298 l 1.08275,0.71929 -0.22738,-0.66877 c -0.43522,-1.28008 -1.01108,-2.55367 -1.79517,-3.97027 -0.30956,-0.55927 -0.43112,-0.66066 -1.21272,-1.01153 -0.5569,-0.25 -0.93814,-0.46274 -1.23635,-0.68991 -0.68636,-0.52286 -1.01035,-0.92115 -1.25774,-1.54619 -0.038,-0.096 -0.1578,-0.52481 -0.26622,-0.95291 -0.2179,-0.86041 -0.29313,-1.05726 -0.47268,-1.23681 -0.30325,-0.30325 -1.01844,-0.53837 -2.88463,-0.94832 -0.41899,-0.092 -0.79192,-0.17404 -0.82873,-0.18221 -0.0461,-0.0102 -0.11736,-0.11735 -0.22894,-0.34412 l -0.162,-0.32926 -0.49974,-0.0188 c -0.27485,-0.0103 -0.93197,-0.0347 -1.46026,-0.0542 -3.9974,-0.14752 -7.34142,-0.63646 -9.17572,-1.34161 -0.87323,-0.33569 -1.50193,-0.7507 -1.76268,-1.16357 -0.0671,-0.10619 -0.1173,-0.14825 -0.19046,-0.15948 -0.17166,-0.0264 -2.73175,-0.16389 -4.30581,-0.23132 -2.86836,-0.12287 -5.54178,-0.18339 -8.11786,-0.18377 l -1.85787,-2.8e-4 -0.0449,1.96246 c -0.0247,1.07935 -0.0457,2.06638 -0.0466,2.19342 l -0.002,0.23096 0.39008,0.0413 c 4.36594,0.46188 9.19221,2.88619 14.06749,7.06629 1.20262,1.03113 3.21721,2.92688 3.47487,3.26987 0.21034,0.28 0.2754,0.49602 0.26234,0.87104 -0.01,0.2877 -0.0224,0.33948 -0.13532,0.56786 -0.20725,0.41901 -0.62909,0.74488 -1.1012,0.85066 -0.18628,0.0417 -2.79494,0.28163 -4.70327,0.43251 -11.35496,0.89776 -20.05023,0.78837 -26.21575,-0.3298 -1.41659,-0.25691 -2.62011,-0.54584 -2.96438,-0.71166 -0.64904,-0.31261 -1.0306,-0.85854 -1.06813,-1.52827 -0.0193,-0.34518 0.0482,-0.62866 0.21972,-0.92274 0.10833,-0.18566 0.89861,-1.14257 1.54553,-1.87137 0.56447,-0.63592 2.06308,-2.13546 2.66472,-2.66639 3.35594,-2.96148 6.71702,-4.58977 10.40018,-5.03841 0.31129,-0.0379 0.80943,-0.0584 1.63952,-0.0674 0.90779,-0.01 1.19385,-0.0226 1.19855,-0.0536 0.003,-0.0223 0.022,-0.79329 0.0414,-1.71324 0.0194,-0.91996 0.0445,-1.87995 0.0558,-2.13332 l 0.0206,-0.46068 -1.51931,0.0226 c -5.05336,0.0752 -9.80186,0.31025 -14.86731,0.73582 -1.661,0.13955 -2.70387,0.23914 -2.72494,0.26021 -0.009,0.008 0.41399,0.67561 0.93878,1.48256 0.52479,0.80695 0.98261,1.54174 1.01739,1.63286 0.0509,0.13326 0.0606,0.22728 0.0498,0.48034 -0.0162,0.37773 -0.11078,0.60256 -0.3529,0.83853 -0.17156,0.16721 -5.65982,3.67569 -5.86068,3.74656 -0.45455,0.16037 -0.98973,0.0472 -1.3191,-0.27888 -0.075,-0.0743 -0.58664,-0.82767 -1.13688,-1.67415 -0.55023,-0.84647 -1.01555,-1.53904 -1.03403,-1.53904 -0.0185,0 -0.0759,0.0301 -0.12769,0.067 -0.48098,0.34249 -1.11702,0.40466 -1.6219,0.15854 -0.37049,-0.18061 -0.49488,-0.34084 -1.51882,-1.95645 -0.51656,-0.81503 -0.95447,-1.48188 -0.97314,-1.48188 -0.10307,0 -0.71393,0.11141 -0.76766,0.14001 -0.0349,0.0185 -0.53896,0.3449 -1.12021,0.72522 -0.59193,0.3873 -1.08996,0.69149 -1.13215,0.69149 -0.0965,0 -0.12442,-0.0337 -0.43241,-0.52181 -0.14087,-0.22323 -0.26714,-0.41269 -0.28061,-0.42101 -0.043,-0.0266 -2.89438,0.48235 -5.28476,0.94319 -3.21761,0.62032 -6.40856,1.30775 -9.93392,2.14007 l -0.39491,0.0932 -0.18026,0.38191 c -0.80635,1.70831 -1.41351,3.72275 -1.67747,5.56544 -0.26778,1.86941 -0.25574,3.91503 0.0341,5.79628 0.81818,5.31022 3.77339,10.04374 8.21098,13.152 2.54723,1.78418 5.52269,2.93369 8.66129,3.34612 0.61994,0.0815 0.97162,0.0848 1.54016,0.0145 2.32537,-0.28738 4.64037,-1.00537 6.72427,-2.08552 1.7821,-0.92372 3.4097,-2.10325 4.83516,-3.50408 l 0.52995,-0.52078 -3.90926,-0.001 c -3.48348,-9.3e-4 -3.91728,-0.007 -3.98287,-0.0526 l -0.0736,-0.0516 v -1.61872 c 0,-1.42739 0.006,-1.62486 0.0521,-1.67076 0.0471,-0.0471 1.33157,-0.052 13.64096,-0.052 13.12266,0 13.5908,0.002 13.64374,0.0606 0.0494,0.0546 0.0548,0.21895 0.0548,1.67077 v 1.61019 l -0.0736,0.0516 c -0.065,0.0455 -0.3605,0.0516 -2.53115,0.0516 h -2.45754 l -0.30555,0.55398 c -2.60328,4.71995 -6.57588,8.68765 -11.30888,11.29493 -3.89601,2.14621 -8.4107,3.39914 -12.76009,3.54123 l -0.67071,0.0219 v 2.78846 2.78847 l 11.709,0.018 c 9.20475,0.0142 11.71952,0.0267 11.75817,0.0588 0.0428,0.0355 0.0492,0.40899 0.0492,2.87081 0,1.88747 -0.0114,2.85136 -0.0343,2.89409 -0.0339,0.0633 -0.3813,0.0641 -27.67193,0.0641 -27.29063,0 -27.63807,-8e-4 -27.67193,-0.0641 z m 49.4825,-2.8672 v -2.63316 h -24.59278 -24.59279 v 2.63316 2.63317 h 24.59279 24.59278 z m -22.42332,-5.76006 v -2.79569 l -0.32293,-0.0204 c -2.24598,-0.14211 -3.89401,-0.39268 -5.79263,-0.88074 -1.21123,-0.31135 -2.69149,-0.80635 -3.78915,-1.26707 l -0.34912,-0.14654 -2.03563,3.23162 c -1.1196,1.7774 -2.24008,3.55628 -2.48997,3.95308 l -0.45435,0.72145 h 7.61689 7.61689 z m 2.33507,-3.13298 c 2.32565,-0.11271 4.48986,-0.46477 6.62432,-1.07763 5.58069,-1.60233 10.48177,-4.82928 14.16727,-9.32792 1.02804,-1.25486 2.1884,-2.97615 2.90467,-4.30882 l 0.17357,-0.32294 h -5.14544 -5.14545 l -0.44668,0.44954 c -2.33628,2.35124 -5.05756,4.04734 -8.13089,5.06778 -1.41775,0.47073 -2.71333,0.75066 -4.28925,0.92675 -0.64742,0.0723 -2.60164,0.10208 -3.3194,0.0505 -4.26303,-0.30626 -8.08995,-1.85142 -11.40315,-4.60416 -0.61064,-0.50734 -1.93201,-1.82243 -2.4153,-2.40381 -2.69377,-3.24055 -4.20594,-6.83594 -4.64581,-11.04606 -0.0824,-0.78843 -0.0822,-2.9682 2.1e-4,-3.7593 0.35045,-3.36182 1.38956,-6.30799 3.19273,-9.05226 0.98904,-1.50523 2.35679,-3.05701 3.67055,-4.16441 0.21536,-0.18153 0.44124,-0.37477 0.50194,-0.42942 l 0.11037,-0.0994 -0.32683,-0.24131 c -1.42876,-1.05493 -2.48953,-2.71866 -2.83431,-4.44539 -0.22265,-1.11507 -0.19508,-2.35253 0.0751,-3.37013 0.0351,-0.13207 0.0571,-0.24013 0.049,-0.24013 -0.008,0 -0.23536,0.14874 -0.50504,0.33053 -3.04497,2.05264 -5.684,4.70173 -7.73713,7.76664 -3.80293,5.67701 -5.43146,12.56856 -4.58475,19.4016 0.64882,5.23611 2.78773,10.24941 6.13417,14.37759 1.17763,1.45274 2.77682,3.05172 4.22024,4.21967 2.96453,2.39878 6.3655,4.17377 10.01166,5.22514 2.19352,0.6325 4.38581,0.98377 6.79166,1.08821 0.54603,0.0237 1.70061,0.0182 2.30195,-0.0109 z m 54.13726,-0.19702 c 1.68361,-0.10328 2.61783,-0.20276 2.82687,-0.30102 0.17016,-0.08 0.39467,-0.31188 0.44684,-0.46155 0.0328,-0.0942 0.0315,-0.0955 -0.13809,-0.13545 -0.0942,-0.0222 -0.38736,-0.11112 -0.6515,-0.19759 -2.29715,-0.75202 -3.61813,-1.94641 -3.92428,-3.54821 -0.0291,-0.1521 -0.0621,-0.4964 -0.0733,-0.7651 -0.0112,-0.26869 -0.0236,-0.48854 -0.0275,-0.48854 -0.0535,0 -1.92929,0.8169 -1.98162,0.86299 -0.0155,0.0137 0.0708,0.5004 0.19187,1.08158 0.12107,0.58118 0.21066,1.08136 0.19909,1.11151 -0.043,0.11215 -0.25931,0.11045 -0.29364,-0.002 -0.009,-0.0309 -0.10869,-0.49595 -0.22061,-1.03335 -0.11191,-0.5374 -0.20784,-0.98184 -0.21317,-0.98764 -0.0151,-0.0164 -0.7,0.3124 -0.71966,0.34549 -0.01,0.0162 0.0782,0.48399 0.19523,1.03961 0.11697,0.55561 0.20443,1.04351 0.19435,1.08423 -0.0257,0.10387 -0.17112,0.13597 -0.24704,0.0545 -0.0397,-0.0426 -0.11806,-0.35567 -0.24768,-0.98972 -0.10427,-0.51007 -0.19647,-0.95177 -0.20489,-0.98156 -0.0126,-0.0445 -0.0931,-0.013 -0.45315,0.17769 -1.05936,0.56094 -2.236,1.29961 -2.95508,1.85514 -0.55929,0.4321 -0.96974,0.80862 -1.04997,0.96321 -0.15868,0.30572 -0.0485,0.71382 0.24031,0.89017 0.12004,0.0733 0.23592,0.10215 0.62749,0.15624 0.89284,0.12333 2.38603,0.24271 3.75931,0.30054 0.85021,0.0358 3.96493,0.0154 4.71983,-0.0309 z m -4.0574,-0.81997 c -1.61414,-0.0193 -4.31891,-0.21112 -4.44658,-0.3154 -0.063,-0.0515 -0.051,-0.21699 0.0185,-0.25417 0.0402,-0.0215 0.23883,-0.0119 0.60447,0.0293 2.28943,0.25808 5.30897,0.29919 8.31984,0.11327 0.9509,-0.0587 0.98537,-0.0551 0.98537,0.10245 0,0.0411 -0.0225,0.0934 -0.0501,0.11627 -0.13102,0.10874 -3.36901,0.23289 -5.43153,0.20827 z m 50.7481,0.80591 c 0.44729,-0.0936 0.58776,-0.23053 0.56405,-0.54978 l -0.0134,-0.18112 -0.44561,-0.43162 c -2.24773,-2.17723 -5.9098,-5.41547 -7.48828,-6.62164 -0.6303,-0.48163 -0.96447,-0.68272 -1.13455,-0.68272 -0.18015,0 -0.44563,0.13415 -0.82827,0.41855 -0.2864,0.21286 -1.8559,1.74621 -1.92873,1.8843 -0.0312,0.0593 0.0689,0.13783 1.07405,0.84266 0.60969,0.42753 1.12326,0.80488 1.14128,0.83855 0.0368,0.0687 -0.0417,0.22233 -0.11348,0.22244 -0.0671,1.1e-4 -1.09791,0.13533 -1.10792,0.14534 -0.005,0.005 0.049,0.41415 0.12013,0.90901 0.14667,1.02001 0.18377,1.1262 0.44739,1.28069 0.23147,0.13565 3.07257,1.04847 3.11894,1.00209 0.009,-0.009 0.13604,-0.40161 0.2831,-0.87326 0.14705,-0.47164 0.29111,-0.87616 0.32012,-0.89894 0.0805,-0.0632 0.16564,-0.0496 0.22118,0.0351 0.0468,0.0714 0.0318,0.13497 -0.22544,0.95225 -0.1816,0.57707 -0.26338,0.88304 -0.23982,0.8972 0.0851,0.0512 0.72272,0.19881 0.74611,0.17279 0.0142,-0.0158 0.13353,-0.37148 0.26525,-0.79046 0.13171,-0.41899 0.25482,-0.78043 0.27358,-0.8032 0.0433,-0.0526 0.16623,-0.0535 0.2181,-0.002 0.069,0.0691 0.0455,0.18329 -0.19457,0.94516 -0.12888,0.40894 -0.2272,0.75065 -0.2185,0.75935 0.0234,0.0234 0.76055,0.19034 1.3471,0.30503 0.55069,0.10768 1.28954,0.21926 1.772,0.2676 0.44273,0.0444 1.73896,0.0164 2.02623,-0.0437 z m -4.77781,-4.04858 c -2.16644,-1.8509 -3.98742,-3.41136 -4.04663,-3.4677 -0.15748,-0.14986 -0.13281,-0.32129 0.0462,-0.32129 0.0508,0 1.35436,1.09409 4.10873,3.44844 2.2189,1.89665 4.0436,3.47282 4.05489,3.50261 0.0113,0.0298 0.008,0.0877 -0.007,0.12869 -0.0748,0.20083 10e-4,0.26118 -4.15601,-3.29075 z m -29.80695,3.59683 c 2.21633,-0.0661 4.37566,-0.21982 7.00522,-0.49868 0.51918,-0.0551 1.08556,-0.12111 1.25862,-0.14678 1.99827,-0.29643 7.35012,-0.70081 11.84097,-0.89471 0.84911,-0.0367 1.20108,-0.0639 1.3156,-0.10173 0.32176,-0.10636 0.59652,-0.45658 0.64026,-0.81611 0.009,-0.078 0.005,-0.81245 -0.0108,-1.63221 -0.0273,-1.45133 -0.03,-1.49501 -0.10411,-1.66316 -0.11357,-0.25787 -0.3149,-0.41949 -1.02946,-0.82644 -3.77425,-2.14946 -7.83832,-3.165 -12.48206,-3.11905 l -0.97231,0.01 -0.0815,-0.0947 -0.0815,-0.0947 -0.35389,0.0223 c -3.31272,0.20852 -6.57176,0.92553 -8.39872,1.84777 -0.16385,0.0827 -0.20904,0.093 -0.2758,0.0625 -0.0641,-0.0292 -0.0778,-0.0572 -0.0695,-0.14156 0.009,-0.0927 0.038,-0.12019 0.24222,-0.23095 0.27296,-0.14806 0.9264,-0.42139 1.38471,-0.57922 1.90973,-0.65765 4.28198,-1.08736 7.02817,-1.27309 0.33998,-0.023 0.59837,-0.0561 0.65217,-0.0837 0.21148,-0.10819 1.80969,-0.40154 4.58104,-0.84085 3.64287,-0.57746 5.10351,-0.87608 6.32975,-1.29405 0.94055,-0.3206 1.37085,-0.56881 1.90916,-1.10128 1.0484,-1.03703 1.71282,-2.33495 2.04541,-3.99563 0.15701,-0.784 0.20901,-1.36757 0.20966,-2.35314 9.4e-4,-1.43755 -0.14575,-2.61243 -0.56569,-4.53077 -0.009,-0.0417 -0.0259,-0.0715 -0.0373,-0.066 -0.0114,0.005 -0.16231,0.0794 -0.33538,0.16431 -0.31282,0.15355 -1.26823,0.51483 -2.18602,0.82663 -1.74525,0.59293 -3.64831,1.01396 -5.39882,1.19444 -0.55148,0.0569 -2.19628,0.0565 -2.64973,-5.4e-4 -1.53199,-0.19279 -2.62397,-0.7102 -3.25006,-1.53996 -0.18777,-0.24886 -0.40117,-0.63557 -0.4877,-0.88379 l -0.0351,-0.10056 -0.20853,0.12775 c -0.11469,0.0703 -0.4172,0.26175 -0.67223,0.42553 -0.25504,0.16379 -1.4027,0.86111 -2.55037,1.54961 -2.0695,1.24153 -2.13282,1.28276 -7.70077,5.01373 l -5.61411,3.76191 -0.57611,0.5646 c -2.13352,2.09087 -3.17501,3.96526 -3.52879,6.35087 -0.14302,0.96442 -0.13092,2.29501 0.0265,2.91208 0.23905,0.93723 0.84326,1.69564 1.84894,2.32081 2.0931,1.30116 6.0234,1.90742 11.33793,1.74892 z m 24.1629,-2.22713 c 3.7e-4,-0.0228 -0.0474,-0.39626 -0.10626,-0.82998 -0.0787,-0.58005 -0.0976,-0.80338 -0.0716,-0.8446 0.0266,-0.0421 0.14071,-0.0702 0.46029,-0.11331 0.23373,-0.0315 0.43786,-0.0616 0.45361,-0.0668 0.0158,-0.005 -0.23671,-0.1953 -0.56104,-0.42232 l -0.58968,-0.41278 -0.69129,-0.0436 c -0.3802,-0.024 -0.69344,-0.0392 -0.69608,-0.0338 -0.003,0.005 4.4e-4,0.63182 0.007,1.39207 l 0.0116,1.38227 0.85005,0.009 c 0.46753,0.005 0.86868,0.0129 0.89145,0.0171 0.0228,0.004 0.0417,-0.0109 0.0421,-0.0337 z m -26.45912,-16.62916 c 3.9964,-2.68024 4.2001,-2.81196 6.32622,-4.09039 1.20828,-0.72654 2.40553,-1.45463 2.66056,-1.61798 0.25504,-0.16336 0.54899,-0.34823 0.65322,-0.41083 0.12165,-0.0731 0.18984,-0.13615 0.19045,-0.17617 8.2e-4,-0.0548 -0.4043,-1.72696 -0.49557,-2.04552 -0.0317,-0.11049 -0.11264,-0.17304 -0.96968,-0.74895 -5.237,-3.51912 -9.19921,-5.50639 -10.97864,-5.50639 -0.28933,0 -0.55163,0.0685 -0.89239,0.23306 -1.83317,0.88525 -2.97568,4.09484 -3.37159,9.47157 -0.0989,1.34285 -0.1217,2.00259 -0.14013,4.05048 -0.017,1.88996 0.0208,4.4571 0.0769,5.21416 l 0.0201,0.27213 1.39557,-0.93787 c 0.76756,-0.51584 3.25378,-2.18412 5.52493,-3.7073 z m -31.7031,2.72637 v -1.39111 h -13.36457 -13.36456 v 1.39111 1.3911 h 13.36456 13.36457 z m 63.19388,-4.08942 c 0.14797,-0.0765 0.4344,-0.41793 0.61003,-0.72713 0.39709,-0.69907 0.77993,-1.7371 0.80828,-2.19158 0.052,-0.83286 -0.37386,-2.02603 -1.26903,-3.55591 -0.19351,-0.33072 -0.18719,-0.23799 -0.12315,-1.80688 0.11484,-2.81356 -0.22412,-5.60929 -1.00312,-8.27373 -0.67144,-2.29652 -1.69921,-4.48137 -2.90446,-6.17433 l -0.2644,-0.37138 -0.47093,0.7854 c -0.64826,1.08113 -1.22546,1.98796 -2.0676,3.24838 -0.39389,0.58952 -0.73428,1.09649 -0.75642,1.1266 -0.0344,0.0468 0.0274,0.13616 0.42715,0.61702 1.53005,1.84061 2.80336,3.65606 3.50771,5.00121 0.51589,0.98521 1.26812,3.06564 1.487,4.11253 0.0375,0.17917 0.0855,0.52712 0.10663,0.77323 0.0349,0.40521 0.03,0.55222 -0.0515,1.55671 -0.15676,1.93154 -0.18953,2.90967 -0.11982,3.57681 0.0354,0.33861 0.11509,0.66243 0.16305,0.66243 0.0594,0 0.26707,-0.28009 0.40211,-0.54243 0.1809,-0.35147 0.21248,-0.38497 0.36281,-0.38497 0.22975,0 0.25827,0.0537 0.33131,0.62387 0.12979,1.0132 0.30392,1.62828 0.5275,1.86331 0.1369,0.14391 0.16178,0.15069 0.29685,0.0808 z m -11.06048,-9.8879 c 0.0894,-0.0894 0.085,-0.11778 -0.0544,-0.34777 -1.36646,-2.25452 -2.15974,-4.51135 -2.47982,-7.0549 -0.29019,-2.30607 -0.81679,-4.2098 -1.74449,-6.30668 -0.60813,-1.37453 -1.73495,-3.35155 -1.93952,-3.40289 -0.0846,-0.0212 -0.20738,0.0642 -0.20738,0.14438 0,0.0255 0.11015,0.21323 0.24478,0.41717 0.73523,1.11372 1.52214,2.68069 2.08238,4.14666 0.63166,1.65282 0.99858,3.14383 1.23077,5.00136 0.19849,1.58795 0.54591,2.96748 1.10071,4.37069 0.23279,0.5888 0.8069,1.76895 1.18494,2.43579 0.38751,0.68354 0.44044,0.73776 0.58201,0.59619 z m -72.99699,-3.82011 c 0.18315,-0.0555 5.59259,-3.49394 5.78423,-3.67666 0.26856,-0.25607 0.36479,-0.6204 0.25074,-0.94923 -0.0816,-0.23529 -2.02108,-3.21996 -2.08335,-3.2061 -0.1016,0.0226 -6.96582,4.41825 -6.95366,4.4529 0.0436,0.12421 1.9914,3.06528 2.10001,3.17087 0.22612,0.21984 0.58801,0.30338 0.90203,0.20822 z m 77.64673,-2.34878 c -0.051,-0.0868 -1.01242,-1.26993 -1.24375,-1.53053 -0.0172,-0.0193 -0.0505,1.3e-4 -0.0852,0.0497 -0.085,0.12149 -0.27787,0.32987 -0.30529,0.32987 -0.0132,0 -0.23031,-0.1637 -0.48247,-0.36377 -0.53143,-0.42164 -0.62203,-0.46406 -0.80262,-0.37582 -0.19704,0.0963 -0.23982,0.22057 -0.23988,0.69691 l -5e-5,0.40447 0.1242,0.0321 c 0.0683,0.0177 0.59371,0.15211 1.16754,0.2988 0.81063,0.20722 1.78439,0.46406 1.88161,0.4963 0.006,0.002 -7.1e-4,-0.0152 -0.0141,-0.038 z m -102.8884,-1.00218 c 3.89907,-0.91196 8.47248,-1.84807 12.45372,-2.5491 0.68313,-0.12028 1.25387,-0.2221 1.26831,-0.22625 0.0213,-0.006 -3.20656,-5.1126 -3.28644,-5.19914 -0.013,-0.014 -0.12686,0.1048 -0.25307,0.26411 -0.66417,0.83835 -1.54184,1.53782 -2.548,2.03064 -0.72273,0.35401 -1.38096,0.55827 -2.20258,0.68352 -0.50268,0.0766 -1.59682,0.0778 -2.0701,0.002 -0.18217,-0.0291 -0.39303,-0.0629 -0.46859,-0.0751 l -0.13737,-0.0222 -0.64443,0.64128 c -1.16393,1.15825 -2.08203,2.30101 -2.87808,3.58236 -0.23351,0.37586 -0.69072,1.16935 -0.69072,1.19874 0,0.006 0.0932,-0.011 0.20701,-0.038 0.11385,-0.027 0.6765,-0.15887 1.25034,-0.29309 z m 21.18659,0.15462 c 0.14152,-0.0446 1.31934,-0.77842 4.39079,-2.73566 2.3111,-1.47272 4.25681,-2.73416 4.32961,-2.80696 0.20659,-0.20658 0.30963,-0.44988 0.32647,-0.77085 0.0121,-0.23025 0.002,-0.29996 -0.0656,-0.46729 -0.0826,-0.20369 -19.6778,-30.99865 -19.82307,-31.15312 -0.0451,-0.0479 -0.1581,-0.12859 -0.25119,-0.17925 -0.20039,-0.10907 -0.56534,-0.14776 -0.77364,-0.082 -0.19032,0.0601 -8.81039,5.55431 -8.96222,5.71233 -0.25079,0.26099 -0.33908,0.73721 -0.19645,1.05965 0.0368,0.0832 1.82666,2.91391 3.97743,6.29043 l 3.91049,6.13912 0.33916,0.21789 c 1.64906,1.05944 2.8333,2.74863 3.25001,4.63578 0.0452,0.20493 0.10032,0.52164 0.12239,0.70381 l 0.0401,0.33121 4.03876,6.34279 c 2.22132,3.48853 4.08598,6.39221 4.14368,6.45262 0.13998,0.14654 0.28711,0.23447 0.51351,0.30687 0.24259,0.0776 0.44931,0.0784 0.68974,0.003 z m -5.14575,-2.90577 c 0.71407,-0.4658 1.29831,-0.85781 1.29831,-0.87113 0,-0.0133 -1.23709,-1.96693 -2.74909,-4.34137 l -2.74909,-4.31715 -0.0243,0.26144 c -0.0881,0.94613 -0.16408,1.35038 -0.37397,1.99034 -0.1529,0.46621 -0.44476,1.10608 -0.6754,1.48074 -0.10284,0.16706 -0.13333,0.24475 -0.11316,0.28827 0.0632,0.13634 4.03756,6.35453 4.06189,6.35512 0.0146,3.6e-4 0.61079,-0.38046 1.32486,-0.84626 z m 60.09244,-0.22126 c -0.28564,-0.61816 -1.84703,-4.02403 -2.25339,-4.91536 l -0.45533,-0.99873 -0.22056,0.0639 c -0.12131,0.0352 -0.53356,0.14473 -0.91612,0.24353 -2.32074,0.59933 -3.91285,0.77064 -4.60118,0.49508 -1.31687,-0.52717 -2.82607,-2.65315 -4.4068,-6.20772 -0.71174,-1.60047 -1.20311,-2.90037 -1.52732,-4.04044 -0.69754,-2.45283 -0.95628,-3.13929 -1.51376,-4.01615 -0.44888,-0.70604 -0.77637,-1.32288 -1.13766,-2.14277 -0.24811,-0.56305 -0.35879,-0.69764 -0.57366,-0.69764 -0.23362,0 -0.46535,0.26943 -0.46535,0.54107 0,0.0655 0.19394,0.61496 0.46371,1.31373 0.25503,0.66062 0.4637,1.21661 0.4637,1.23555 0,0.0601 -0.10716,0.15556 -0.17457,0.15556 -0.0357,0 -0.16855,-0.0689 -0.2952,-0.15308 -0.26072,-0.17333 -0.50889,-0.2775 -0.66109,-0.2775 -0.32206,0 -0.56634,0.68401 -0.56776,1.58984 -0.002,1.08217 0.31495,1.97955 0.93973,2.66316 0.23337,0.25534 0.49961,0.4389 0.97418,0.67163 0.2186,0.1072 0.44637,0.23109 0.50614,0.2753 0.25831,0.19108 0.27729,0.2445 1.10039,3.09703 0.92474,3.20483 1.34459,4.5877 1.8869,6.21501 0.59029,1.77131 0.92444,2.55673 1.22993,2.89098 0.7758,0.84886 3.13829,1.52113 6.75328,1.92172 1.69957,0.18834 3.46678,0.30199 4.84319,0.31148 l 0.71956,0.005 z m -70.56886,-2.37188 c 3.04024,-0.54374 5.33991,-2.87076 5.85128,-5.92086 0.0937,-0.55879 0.0852,-1.70765 -0.0169,-2.2774 -0.3267,-1.82421 -1.29466,-3.40505 -2.76231,-4.51127 -0.94962,-0.71576 -2.05398,-1.17144 -3.28741,-1.35642 -0.44362,-0.0665 -1.36337,-0.0759 -1.80512,-0.0184 -1.5862,0.20659 -2.98891,0.88341 -4.11679,1.98639 -0.63378,0.61978 -1.03697,1.17281 -1.41554,1.94155 -0.36279,0.73673 -0.59455,1.50232 -0.69683,2.30195 -0.0506,0.39542 -0.0505,1.28056 1.9e-4,1.67264 0.20834,1.61232 0.89459,3.02409 2.02212,4.15999 0.42742,0.43059 0.70051,0.65471 1.17987,0.96827 0.94069,0.61535 1.973,0.97632 3.22571,1.12795 0.31345,0.0379 1.45391,-0.009 1.82168,-0.0744 z m -1.75999,-3.05417 c -0.66375,-0.0975 -1.33383,-0.3827 -1.87183,-0.79673 -0.25696,-0.19775 -0.70535,-0.67846 -0.87715,-0.94038 -0.31801,-0.48484 -0.55276,-1.08369 -0.62656,-1.59836 -0.0638,-0.4451 -0.0253,-1.24557 0.0791,-1.64155 0.1728,-0.65579 0.55695,-1.3192 1.0485,-1.81076 0.49155,-0.49155 1.15497,-0.87569 1.81075,-1.0485 0.39598,-0.10434 1.19646,-0.14291 1.64155,-0.0791 1.05404,0.15114 2.08296,0.81202 2.69913,1.73367 1.33631,1.99882 0.61515,4.71422 -1.54029,5.79965 -0.68875,0.34684 -1.59995,0.49415 -2.36319,0.38204 z m 59.39157,2.86599 c 0,-0.01 -0.0959,-0.25956 -0.21308,-0.55484 -0.23952,-0.60351 -0.75644,-2.12273 -1.09547,-3.21961 -0.12387,-0.40077 -0.22824,-0.73274 -0.23193,-0.73771 -0.004,-0.005 -0.10275,0.0845 -0.22014,0.19873 -0.40009,0.38946 -0.83405,0.5808 -1.38593,0.61109 -0.87732,0.0482 -1.65523,-0.40965 -2.03609,-1.19824 -0.19009,-0.3936 -0.21618,-0.60873 -0.21618,-1.78296 v -1.04051 l -0.27001,0.0629 c -1.09671,0.25537 -2.82763,0.47555 -4.38357,0.5576 -0.76024,0.0401 -2.57007,0.0411 -3.34528,0.002 -0.30969,-0.0157 -0.56952,-0.0222 -0.5774,-0.0144 -0.0179,0.0176 -0.18095,6.66927 -0.1638,6.68311 0.007,0.006 1.39121,0.0278 3.07627,0.0494 1.68506,0.0216 3.49598,0.0536 4.02427,0.071 2.20851,0.0728 4.32357,0.16872 5.81284,0.26349 1.0508,0.0669 1.2255,0.0739 1.2255,0.0491 z m -2.80015,-4.07358 c 0.29686,-0.0773 0.57507,-0.24141 0.81286,-0.47944 0.26412,-0.2644 0.31368,-0.35342 0.28421,-0.51053 -0.0122,-0.0652 -0.0328,-0.11857 -0.0456,-0.11857 -0.0129,0 -0.0606,0.0706 -0.10614,0.15692 -0.18384,0.34862 -0.63156,0.68373 -1.03051,0.77132 -0.26513,0.0582 -0.72778,0.0269 -0.96747,-0.0656 -0.43136,-0.1663 -0.81218,-0.57402 -0.94856,-1.01555 -0.0659,-0.21331 -0.0675,-0.29499 -0.0693,-3.46916 l -0.002,-3.25071 -0.0975,-0.077 -0.0975,-0.077 v 3.30772 c 0,2.85251 0.007,3.33488 0.0504,3.50512 0.16192,0.63423 0.6416,1.13431 1.25791,1.3114 0.25168,0.0723 0.70402,0.0776 0.95915,0.0111 z m 31.29135,-3.04534 c 0.76783,-0.0815 1.63533,-0.28808 2.16742,-0.51616 0.12194,-0.0523 0.14447,-0.0765 0.14447,-0.15568 0,-0.0799 -0.0577,-0.14007 -0.38918,-0.40642 -0.47741,-0.38357 -1.26749,-1.1655 -1.60537,-1.58884 -0.49354,-0.61835 -0.67137,-0.91854 -1.19689,-2.02042 -0.0278,-0.0583 -0.15541,-0.13989 -0.43176,-0.27599 -0.3219,-0.15853 -0.43168,-0.2328 -0.61196,-0.41402 -0.3917,-0.39373 -0.559,-0.82756 -0.59084,-1.53211 l -0.0188,-0.41701 -0.15302,0.0147 c -0.20044,0.0193 -0.39123,-0.0346 -0.5627,-0.1588 -0.15637,-0.11327 -0.21996,-0.23587 -0.1704,-0.32848 0.0702,-0.13109 0.13706,-0.11866 0.37108,0.069 0.11814,0.0947 0.37947,0.12004 0.5151,0.0499 0.22597,-0.11686 0.59728,-0.79183 0.62919,-1.14377 0.021,-0.23167 -0.0251,-0.33064 -0.19817,-0.42521 -0.0941,-0.0514 -0.18521,-0.0575 -0.73682,-0.0489 -0.55844,0.009 -0.65433,0.002 -0.84957,-0.0583 -0.52586,-0.16242 -0.90472,-0.572 -1.104,-1.1935 -0.0674,-0.21012 -0.14926,-0.31207 -0.32169,-0.4005 -0.0944,-0.0484 -0.14214,-0.0554 -0.208,-0.0303 -0.0988,0.0376 -0.14997,0.14515 -0.33071,0.69581 -0.1934,0.58925 -0.45933,1.08473 -0.80853,1.50643 -0.0751,0.0907 -0.13647,0.18018 -0.13628,0.19873 1.9e-4,0.0186 0.11997,0.17532 0.26617,0.34838 0.1462,0.17306 0.27476,0.34982 0.28569,0.39281 0.0232,0.0915 0.005,0.31212 -0.0887,1.07961 -0.0935,0.76473 -0.0936,0.93371 -8e-4,1.12549 0.0412,0.085 0.10935,0.17723 0.15153,0.20486 0.10717,0.0702 0.54012,0.1402 1.02919,0.16635 0.33715,0.018 0.4295,0.0341 0.49575,0.0862 0.19497,0.15337 0.50663,0.99362 0.67655,1.82403 0.0648,0.31664 0.069,0.38727 0.0361,0.60839 -0.0681,0.45772 -0.30312,0.89651 -0.75965,1.41814 -0.12754,0.14573 -0.32975,0.34694 -0.44934,0.44714 -0.11959,0.10019 -0.21769,0.19113 -0.218,0.20208 -7.7e-4,0.0272 0.71956,0.23881 1.22494,0.35984 0.54212,0.12982 1.24765,0.25121 1.72232,0.29634 0.2095,0.0199 0.43307,0.0412 0.49683,0.0474 0.32318,0.0311 1.32888,0.0153 1.72894,-0.0271 z m -3.32133,-6.50666 c -0.10336,-0.10336 -0.13025,-0.27565 -0.0627,-0.40184 0.0427,-0.0797 0.20146,-0.16377 0.30949,-0.16377 0.10496,0 0.27215,0.14019 0.30013,0.25165 0.08,0.31855 -0.31538,0.5455 -0.54691,0.31396 z m -35.73566,6.22368 c 1.76947,-0.0684 3.19625,-0.23196 4.66187,-0.53426 l 0.5051,-0.10418 v -2.26777 -2.26778 l -0.14518,-0.21974 c -0.17888,-0.27076 -0.31936,-0.54989 -0.41897,-0.83249 -0.0417,-0.11841 -0.0861,-0.22713 -0.0985,-0.24159 -0.0282,-0.0329 -1.4212,1.00616 -2.15271,1.60568 -0.9992,0.81893 -2.03058,1.75763 -2.76563,2.51712 -0.44708,0.46195 -0.53669,0.52054 -0.63927,0.41797 -0.0984,-0.0984 -0.0402,-0.19089 0.41568,-0.6597 1.25498,-1.29064 2.995,-2.77362 4.63992,-3.9545 l 0.40864,-0.29336 -0.0194,-0.13467 c -0.0106,-0.0741 -0.0287,-0.38298 -0.0402,-0.68646 -0.0235,-0.62361 0.0293,-1.06297 0.17443,-1.45039 0.14007,-0.37395 0.3695,-0.63099 0.5632,-0.63099 h 0.0779 l -8.1e-4,-0.81976 c -4.5e-4,-0.45087 -0.0164,-0.88683 -0.0354,-0.96881 -0.0247,-0.10635 -0.0237,-0.2202 0.003,-0.39746 0.0218,-0.14183 0.0334,-0.49429 0.0272,-0.8215 l -0.011,-0.57309 -0.44714,0.3038 c -2.60384,1.76916 -4.85424,4.58039 -6.69298,8.36098 -0.42182,0.86731 -0.73603,1.57754 -1.10907,2.50693 l -0.27505,0.68524 -0.0237,0.71415 -0.0237,0.71414 0.24501,0.004 c 0.13476,0.002 0.52075,0.0145 0.85776,0.0272 0.9616,0.036 1.41119,0.0362 2.31852,10e-4 z m -3.73402,-0.2395 c 0.0202,-0.20456 0.007,-0.23609 -0.0433,-0.10395 -0.0689,0.1809 -0.0771,0.27784 -0.0234,0.27784 0.0356,0 0.0545,-0.0491 0.0668,-0.17389 z m 15.01193,-2.9835 c 3.00498,-2.01034 5.19795,-5.09914 6.37356,-8.97715 0.19732,-0.65091 0.46311,-1.71041 0.47448,-1.89141 l 0.008,-0.12943 -0.34778,-0.11127 c -2.28438,-0.73089 -4.43141,-1.05 -6.33717,-0.9419 -0.6125,0.0347 -1.55888,0.1403 -1.59667,0.17809 -0.007,0.007 0.0237,0.0857 0.0686,0.17439 0.20904,0.4129 0.0107,0.99638 -0.40267,1.18474 l -0.0787,0.0359 v 1.86605 c 0,1.02633 0.01,1.86606 0.0213,1.86606 0.0117,0 0.2837,-0.14 0.60447,-0.31111 1.15684,-0.6171 3.33316,-1.68105 4.39058,-2.14645 0.24365,-0.10724 0.31005,-0.12431 0.37262,-0.0958 0.0851,0.0388 0.10724,0.20343 0.0347,0.25775 -0.0228,0.017 -0.33204,0.1628 -0.68727,0.32388 -1.32468,0.60068 -3.46545,1.6639 -4.45485,2.21251 l -0.26497,0.14692 -0.009,2.06496 -0.008,2.06495 0.13418,0.44599 c 0.12679,0.4214 0.52464,1.5046 0.75849,2.0651 l 0.10653,0.25533 0.27073,-0.16932 c 0.1489,-0.0931 0.40487,-0.25907 0.56882,-0.36875 z m -14.84676,-3.37584 c 0.0161,-1.04387 0.0127,-1.08382 -0.15419,-1.82997 -0.8196,-3.66455 -1.92634,-6.45999 -3.48154,-8.79379 -2.5371,-3.80726 -6.02918,-5.7776 -10.74732,-6.06398 -1.22613,-0.0744 -3.09369,0.0289 -4.33401,0.2399 l -0.21037,0.0358 0.0215,0.36863 c 0.24759,4.24 1.46187,7.48308 3.79356,10.13178 2.94772,3.34849 7.73543,5.50124 14.0773,6.32973 0.35522,0.0464 0.68313,0.0904 0.72867,0.0978 0.0455,0.007 0.13124,0.0154 0.19045,0.0179 l 0.10764,0.005 z m -4.3218,-3.22936 c -0.0281,-0.0319 -0.21176,-0.27408 -0.40813,-0.53822 -1.2973,-1.74503 -2.84248,-3.39629 -4.37246,-4.67264 -1.60819,-1.34158 -3.54698,-2.55544 -5.50424,-3.44615 -0.61327,-0.27908 -0.676,-0.32604 -0.60722,-0.45456 0.0646,-0.12067 0.13626,-0.10885 0.61101,0.1007 3.08452,1.36151 5.92608,3.42768 8.28146,6.02165 0.97988,1.07914 2.27227,2.72902 2.27227,2.90081 0,0.13336 -0.18125,0.19213 -0.27269,0.0884 z m -37.3104,3.55742 c -0.24185,-0.40685 -2.67693,-4.19421 -2.69243,-4.18763 -0.0794,0.0337 -2.61539,1.70319 -2.61608,1.72218 -4.8e-4,0.0131 0.27232,0.45278 0.60621,0.97709 l 0.60709,0.95329 0.21267,-0.0166 c 0.5005,-0.039 1.60354,-0.0135 1.96812,0.0454 0.6009,0.0971 1.48923,0.34933 1.77201,0.50312 0.10909,0.0593 0.1767,0.0608 0.14241,0.003 z m 54.30949,-3.89691 v -3.47777 h -1.80513 -1.80512 v 0.59262 0.59262 l 0.12293,-0.0627 c 0.25732,-0.13119 0.60169,-0.045 0.8148,0.204 0.0604,0.0706 0.19702,0.32639 0.30354,0.56843 0.37848,0.86 0.73371,1.52656 1.17888,2.21209 0.25632,0.39471 0.49773,0.88259 0.68834,1.3911 0.11606,0.30966 0.13982,0.34893 0.21669,0.35826 0.084,0.0102 0.0863,0.0169 0.0863,0.24707 0,0.20396 0.142,0.85202 0.18669,0.85202 0.007,0 0.012,-1.56499 0.012,-3.47776 z m -3.31252,0.4223 c -0.0361,-0.0956 -0.11721,-0.30803 -0.18019,-0.47199 l -0.11451,-0.29809 -0.001,0.39746 -10e-4,0.39746 0.17352,0.0705 c 0.0954,0.0388 0.17704,0.0723 0.18134,0.0745 0.004,0.002 -0.0217,-0.0742 -0.0579,-0.16983 z m 3.55526,-4.27647 c 0.238,-0.0994 0.38711,-0.40236 0.32027,-0.65061 -0.0448,-0.16648 -0.22513,-0.34994 -0.38849,-0.39531 -0.0801,-0.0222 -0.7896,-0.0347 -1.97965,-0.0347 -1.19005,0 -1.89954,0.0124 -1.97964,0.0347 -0.27096,0.0752 -0.45996,0.40314 -0.38625,0.67009 0.0419,0.15181 0.17906,0.31708 0.31071,0.37442 0.15043,0.0655 3.94649,0.0668 4.10305,0.001 z m -9.19752,-3.36747 c 3.63447,-0.21042 6.3824,-1.27148 8.32597,-3.21491 1.38294,-1.38283 2.34661,-3.24766 2.81149,-5.4406 l 0.0956,-0.45111 -0.22003,-0.0647 c -1.15255,-0.33897 -2.14007,-0.48371 -3.26722,-0.47888 -1.37663,0.006 -2.43835,0.24803 -3.61025,0.82331 -2.63972,1.29582 -4.6719,4.08266 -6.12953,8.40572 l -0.14238,0.42231 h 0.11174 c 0.10726,0 0.11939,-0.0136 0.30218,-0.3395 1.54399,-2.75253 4.07874,-4.75031 8.07666,-6.36566 0.53825,-0.21748 0.65702,-0.22842 0.67314,-0.062 0.0129,0.13345 -0.018,0.15377 -0.56485,0.37101 -3.35755,1.33383 -5.66903,2.97476 -7.20573,5.11539 -0.22528,0.31381 -0.80158,1.2426 -0.80158,1.29185 0,0.0333 0.87819,0.0263 1.54476,-0.0123 z m -48.09717,-5.19769 c 1.58487,-1.00743 2.90179,-1.85046 2.92648,-1.87341 0.0372,-0.0345 -0.65533,-1.14163 -4.02177,-6.42951 -2.23667,-3.51328 -4.06992,-6.39238 -4.07388,-6.39801 -0.004,-0.006 -1.35647,0.84909 -3.00558,1.89936 l -2.99837,1.90958 0.2043,0.32104 c 7.56976,11.89526 7.95241,12.48901 8.02065,12.44529 0.0366,-0.0235 1.3633,-0.86692 2.94817,-1.87434 z m -12.3253,-10.56552 c 0.11035,-0.0419 7.66685,-4.85579 7.76336,-4.94562 0.10794,-0.10046 0.1596,-0.29528 0.11599,-0.43738 -0.0583,-0.18998 -0.94077,-1.54383 -1.05223,-1.61431 -0.0736,-0.0465 -0.14229,-0.0594 -0.26498,-0.0496 -0.15405,0.0123 -0.4314,0.18258 -3.97459,2.43969 -2.09494,1.33454 -3.84962,2.46462 -3.8993,2.5113 -0.1095,0.10287 -0.172,0.27764 -0.14593,0.40801 0.0192,0.0962 0.82821,1.40087 0.96097,1.54979 0.13022,0.14608 0.32978,0.20156 0.49671,0.13809 z m 61.51501,87.19046 c -0.0681,-0.0681 -0.0688,-0.16183 -0.002,-0.22889 0.0451,-0.0451 0.18873,-0.0521 1.06982,-0.0521 1.07265,0 1.09728,0.003 1.09728,0.15162 0,0.15549 -0.0442,0.16238 -1.11047,0.17309 -0.88844,0.009 -1.0071,0.004 -1.05487,-0.0438 z m -1.94175,-0.002 c -0.0455,-0.005 -0.46287,-0.0268 -0.92741,-0.048 -0.88336,-0.0404 -0.99364,-0.0622 -0.99364,-0.19603 0,-0.0347 0.0253,-0.0884 0.0563,-0.11942 0.0477,-0.0477 0.0994,-0.0532 0.33949,-0.0361 0.15576,0.0111 0.6111,0.037 1.01187,0.0576 0.40077,0.0206 0.74731,0.0525 0.77008,0.0709 0.0977,0.0792 0.008,0.29667 -0.11829,0.28544 -0.0306,-0.003 -0.0929,-0.009 -0.1384,-0.0143 z m 5.73666,-0.0867 c -0.0549,-0.0549 -0.0498,-0.17566 0.01,-0.22495 0.0309,-0.0257 0.30024,-0.0582 0.72039,-0.087 0.36908,-0.0254 0.81264,-0.0589 0.9857,-0.0747 0.34243,-0.0311 0.46371,0.002 0.46371,0.1267 0,0.15918 -0.0331,0.16624 -1.17582,0.25068 -0.80302,0.0593 -0.95214,0.0607 -1.00359,0.009 z m -9.72781,-0.19807 c -1.05033,-0.11985 -1.62433,-0.19954 -1.66192,-0.23073 -0.0591,-0.049 -0.0555,-0.17608 0.006,-0.22745 0.0579,-0.048 0.11061,-0.0445 1.25809,0.0835 0.69108,0.0771 0.8025,0.0974 0.85289,0.15553 0.0319,0.0368 0.058,0.0801 0.058,0.0963 0,0.0534 -0.13136,0.16202 -0.19045,0.15751 -0.0319,-0.002 -0.1772,-0.018 -0.32294,-0.0347 z m 13.51958,-0.14185 c -0.14136,-0.14135 -0.022,-0.26303 0.29212,-0.29768 0.26777,-0.0296 1.57176,-0.21264 1.66097,-0.23321 0.10956,-0.0253 0.22534,0.0847 0.19913,0.1892 -0.0117,0.0466 -0.0475,0.0948 -0.0795,0.10713 -0.0586,0.0225 -1.44133,0.22658 -1.81601,0.26799 -0.1644,0.0182 -0.21118,0.0121 -0.25669,-0.0334 z m -17.59354,-0.41572 c -1.26472,-0.22309 -1.30789,-0.23309 -1.36189,-0.3155 -0.0377,-0.0575 -0.0417,-0.0935 -0.0159,-0.14162 0.0518,-0.0968 0.10296,-0.10406 0.371,-0.0526 0.13476,0.0258 0.55057,0.0993 0.92402,0.16334 0.87192,0.1494 0.82421,0.13665 0.86754,0.23175 0.0306,0.0672 0.0266,0.0936 -0.0228,0.14813 -0.075,0.0828 -0.11185,0.0812 -0.76192,-0.0335 z m 21.34854,-0.1797 c -0.0218,-0.0262 -0.0348,-0.0891 -0.0289,-0.13971 0.0127,-0.10949 -0.0701,-0.0843 1.07934,-0.32803 0.47846,-0.10144 0.9107,-0.17974 0.96052,-0.17401 0.0783,0.009 0.092,0.0271 0.10079,0.13316 0.0101,0.12202 0.009,0.12302 -0.16561,0.17367 -0.24782,0.0718 -1.73251,0.3826 -1.82772,0.3826 -0.0434,0 -0.0967,-0.0215 -0.11842,-0.0477 z m -24.6607,-0.46831 c -1.53629,-0.36057 -1.74325,-0.41801 -1.77756,-0.49332 -0.0461,-0.10108 0.0158,-0.21632 0.11611,-0.21632 0.0681,0 1.58739,0.34771 1.8847,0.43133 0.16132,0.0454 0.20673,0.1775 0.0927,0.26981 -0.0412,0.0334 -0.0844,0.0594 -0.0961,0.0579 -0.0116,-0.002 -0.1106,-0.0238 -0.2199,-0.0494 z m 28.35761,-0.36738 c -0.0395,-0.0395 -0.0233,-0.20067 0.0242,-0.24006 0.0254,-0.0211 0.25275,-0.0957 0.50511,-0.16582 0.25236,-0.0701 0.6795,-0.19191 0.94919,-0.27072 0.5383,-0.15731 0.59449,-0.15464 0.61288,0.0291 0.007,0.072 -0.008,0.11161 -0.05,0.13432 -0.11042,0.0591 -1.81785,0.53525 -1.91933,0.53525 -0.055,0 -0.1099,-0.01 -0.12205,-0.0221 z m -32.61373,-0.74454 c -1.16021,-0.35732 -1.17431,-0.3629 -1.18649,-0.46916 -0.0119,-0.10379 0.0418,-0.18845 0.11961,-0.18845 0.0685,0 1.7897,0.52126 1.89492,0.57388 0.0644,0.0322 0.0828,0.0669 0.0828,0.15607 0,0.11068 -0.005,0.11486 -0.13249,0.12061 -0.0826,0.004 -0.3758,-0.069 -0.77836,-0.19295 z m -8.15184,-19.18924 c -0.10582,-0.0575 -0.19481,-0.23516 -0.19481,-0.3889 0,-0.0627 0.028,-0.19532 0.0622,-0.29468 0.46593,-1.35425 2.12209,-2.35408 4.09764,-2.47376 1.23357,-0.0747 2.31009,0.13461 3.27751,0.63737 l 0.39897,0.20734 0.37805,0.023 c 1.87393,0.11381 3.47671,0.82291 3.94159,1.74384 0.10805,0.21405 0.11861,0.28464 0.0614,0.41029 -0.0897,0.19693 0.2909,0.18544 -6.09479,0.18399 -4.98701,-0.001 -5.85363,-0.008 -5.92768,-0.0485 z m 75.11543,-8.20015 c -0.0319,-0.0186 -0.0579,-0.0666 -0.0578,-0.10664 7e-5,-0.0401 0.20501,-0.4753 0.45542,-0.96716 0.37904,-0.74452 0.46807,-0.89609 0.53164,-0.9051 0.0983,-0.0139 0.17206,0.0481 0.17206,0.14476 0,0.0696 -0.70286,1.51092 -0.85939,1.76227 -0.0687,0.11031 -0.13969,0.1314 -0.2419,0.0719 z m 5.21341,-14.26893 c -0.0246,-0.0156 -0.0457,-0.0638 -0.047,-0.10714 -0.004,-0.1461 0.38635,-1.95869 0.43202,-2.00436 0.0678,-0.0678 0.16532,-0.0546 0.2207,0.0299 0.0447,0.0682 0.0373,0.13501 -0.0793,0.7204 -0.19153,0.96116 -0.26933,1.30304 -0.30697,1.34906 -0.0388,0.0474 -0.15372,0.0538 -0.21946,0.0121 z m 0.69879,-3.73538 c -0.0228,-0.009 -0.0415,-0.0639 -0.0417,-0.12159 -5e-4,-0.19075 0.24217,-1.95887 0.27464,-2.0011 0.049,-0.0638 0.21508,-0.0508 0.25282,0.0197 0.0497,0.0928 -0.19625,1.99451 -0.26942,2.08353 -0.0341,0.0414 -0.13858,0.0508 -0.21637,0.0195 z m 0.42076,-3.80546 c -0.0347,-0.0418 -0.0354,-0.17173 -0.004,-0.68727 0.0215,-0.34966 0.0487,-0.80467 0.0604,-1.01114 0.0221,-0.38886 0.0524,-0.4692 0.17665,-0.4692 0.13718,0 0.1678,0.0844 0.14819,0.40857 -0.076,1.25648 -0.11571,1.72176 -0.1504,1.76356 -0.0517,0.0623 -0.17774,0.0599 -0.23118,-0.005 z m 0.17509,-3.78496 c -0.0623,-0.0396 -0.10241,-2.06803 -0.0423,-2.14044 0.0558,-0.0672 0.18013,-0.0653 0.23734,0.004 0.0632,0.0762 0.0893,2.04189 0.0281,2.11569 -0.0439,0.0529 -0.15639,0.0635 -0.2231,0.0212 z m -0.13267,-3.82181 c -0.0199,-0.024 -0.0595,-0.31172 -0.0879,-0.63928 -0.0284,-0.32756 -0.0691,-0.77746 -0.0904,-0.99979 -0.0441,-0.45938 -0.0267,-0.51753 0.14927,-0.50003 0.0805,0.008 0.10504,0.0296 0.12439,0.10934 0.0412,0.17008 0.16696,1.67942 0.15586,1.87137 -0.0102,0.17664 -0.0136,0.18247 -0.11273,0.19214 -0.0562,0.005 -0.11851,-0.01 -0.13847,-0.0337 z m -0.40037,-3.76415 c -0.0284,-0.0185 -0.0848,-0.27642 -0.15385,-0.70413 -0.0599,-0.3712 -0.13584,-0.82638 -0.16863,-1.0115 -0.0496,-0.27986 -0.0523,-0.34546 -0.016,-0.38918 0.0634,-0.0764 0.19153,-0.0651 0.24793,0.0219 0.0737,0.11359 0.37335,1.96866 0.3294,2.03888 -0.0398,0.0635 -0.17163,0.0878 -0.23886,0.044 z m -0.7256,-3.75552 c -0.0183,-0.0228 -0.0503,-0.12337 -0.0712,-0.22357 -0.0208,-0.10019 -0.12233,-0.53735 -0.22559,-0.97145 -0.14065,-0.59127 -0.17907,-0.80317 -0.15314,-0.84461 0.045,-0.0718 0.18878,-0.0885 0.24848,-0.0288 0.0257,0.0257 0.14778,0.48023 0.27132,1.0101 0.24427,1.04766 0.24699,1.0997 0.0575,1.0997 -0.0518,0 -0.10914,-0.0186 -0.12746,-0.0414 z m -0.89786,-3.67954 c -0.0418,-0.0504 -0.56741,-1.87278 -0.56741,-1.96743 0,-0.14659 0.19647,-0.19352 0.27838,-0.0665 0.0509,0.0789 0.50312,1.64007 0.53877,1.85985 0.0167,0.10314 0.009,0.13826 -0.0401,0.17389 -0.0778,0.0569 -0.16252,0.057 -0.20966,1.9e-4 z m -1.07066,-3.64033 c -0.0547,-0.0434 -0.65601,-1.81331 -0.65601,-1.931 0,-0.15226 0.19436,-0.20312 0.27842,-0.0729 0.0757,0.11727 0.61587,1.762 0.61587,1.87512 0,0.14298 -0.13105,0.21377 -0.23828,0.12874 z m -1.27011,-3.60417 c -0.0587,-0.0949 -0.71076,-1.83858 -0.71076,-1.90053 0,-0.0392 0.0179,-0.0892 0.0397,-0.11107 0.0524,-0.0524 0.17487,-0.0507 0.21945,0.003 0.0357,0.043 0.26629,0.62163 0.57521,1.44324 0.13954,0.3711 0.16062,0.4554 0.13043,0.52166 -0.0262,0.0574 -0.0629,0.079 -0.13413,0.079 -0.054,0 -0.10795,-0.0159 -0.11995,-0.0353 z m -1.45973,-3.63085 c -0.0285,-0.0694 -0.20694,-0.47913 -0.39663,-0.91043 -0.18968,-0.43129 -0.34487,-0.82286 -0.34487,-0.87015 0,-0.0585 0.0253,-0.0975 0.0792,-0.12206 0.16199,-0.0738 0.15833,-0.08 0.73694,1.25582 0.28561,0.65942 0.29729,0.74662 0.10216,0.76274 -0.1172,0.01 -0.12828,0.002 -0.17679,-0.11592 z m -82.35312,-2.29813 c -2.0651,-0.25311 -3.93142,-1.16621 -5.35343,-2.61916 -2.72876,-2.78814 -3.30433,-7.04874 -1.41101,-10.4449 1.366,-2.45027 3.7047,-4.0564 6.51603,-4.47494 0.52965,-0.0789 1.53914,-0.0953 2.10967,-0.0345 2.03366,0.21702 3.94386,1.12559 5.37465,2.55638 2.2697,2.26969 3.12062,5.61689 2.21858,8.72699 -0.56482,1.9474 -1.85342,3.70115 -3.55412,4.83703 -1.07093,0.71527 -2.32284,1.20292 -3.61498,1.40812 -0.40588,0.0645 -1.88829,0.0936 -2.28539,0.0449 z m 2.17171,-0.35897 c 2.82876,-0.42078 5.18876,-2.13864 6.44264,-4.68966 1.03154,-2.09866 1.15791,-4.4586 0.35632,-6.65414 -1.10803,-3.03487 -3.87386,-5.19356 -7.11313,-5.55171 -0.46417,-0.0513 -1.45016,-0.0421 -1.90844,0.0178 -1.55059,0.20281 -2.88512,0.74201 -4.12242,1.66562 -0.49986,0.37313 -1.26199,1.13758 -1.64782,1.65285 -1.07448,1.43491 -1.65915,3.08241 -1.71953,4.84527 -0.0605,1.76677 0.43215,3.50236 1.41282,4.97729 1.12297,1.68893 2.79127,2.91499 4.74178,3.48481 0.55524,0.16221 1.04849,0.25068 1.83321,0.32883 0.2964,0.0295 1.31389,-0.0159 1.72457,-0.077 z m 2.25455,-2.83506 c -0.0399,-0.0399 -0.0462,-0.10798 -0.0317,-0.33949 0.01,-0.15929 0.005,-0.34106 -0.0121,-0.40394 -0.0301,-0.11349 -0.0315,-0.11427 -0.20206,-0.10522 -0.41063,0.0218 -0.84977,-0.15356 -1.15902,-0.46281 l -0.19445,-0.19445 -0.0868,0.0906 c -0.0477,0.0498 -0.14376,0.19496 -0.21337,0.32248 -0.0919,0.16844 -0.14728,0.23481 -0.20231,0.24267 -0.0989,0.0141 -0.17147,-0.0486 -0.17147,-0.14831 0,-0.1296 0.18874,-0.46512 0.36383,-0.64677 l 0.16286,-0.16897 -0.0481,-0.18449 c -0.18309,-0.70293 0.1553,-1.43411 0.81063,-1.75161 0.13799,-0.0669 0.25465,-0.12355 0.25925,-0.12599 0.005,-0.002 -0.0217,-0.0918 -0.0584,-0.19864 -0.0367,-0.10681 -0.0762,-0.27416 -0.0877,-0.37188 l -0.0209,-0.17768 -0.32386,-0.16253 c -0.3357,-0.16846 -0.39709,-0.23587 -0.32962,-0.36195 0.0521,-0.0974 0.16708,-0.0846 0.42987,0.0477 l 0.22882,0.11523 0.0389,-0.18975 c 0.0214,-0.10437 0.0746,-0.27803 0.11813,-0.38592 0.0436,-0.10788 0.0792,-0.19996 0.0792,-0.20461 0,-0.005 -0.0931,-0.0641 -0.20701,-0.13203 -0.11385,-0.068 -0.23309,-0.14588 -0.26497,-0.17314 -0.0669,-0.0572 -0.076,-0.17358 -0.0182,-0.2314 0.0687,-0.0687 0.16791,-0.0435 0.42039,0.10668 l 0.24485,0.14569 0.1282,-0.16219 c 0.11796,-0.14922 0.32401,-0.33156 0.52607,-0.4655 l 0.0815,-0.0541 -0.10793,-0.14469 c -0.21837,-0.29273 -0.28008,-0.41728 -0.24199,-0.48844 0.0394,-0.0737 0.13487,-0.11417 0.20449,-0.0867 0.0253,0.01 0.11729,0.11839 0.20433,0.24088 0.27222,0.38308 0.21909,0.34942 0.48619,0.30798 0.82285,-0.12767 1.52279,0.42091 1.66615,1.30584 l 0.0429,0.26497 0.34435,0.0374 c 0.26501,0.0288 0.35447,0.0512 0.38824,0.0974 0.0583,0.0797 0.0553,0.13053 -0.0116,0.19746 -0.047,0.047 -0.0962,0.0519 -0.32294,0.032 -0.46949,-0.0413 -0.42073,-0.0585 -0.46835,0.16569 -0.0232,0.1093 -0.0661,0.26477 -0.0952,0.34548 -0.0291,0.0807 -0.0415,0.15627 -0.0275,0.16791 0.014,0.0116 0.17453,0.0861 0.3567,0.16549 0.18217,0.0794 0.34985,0.1669 0.37262,0.19448 0.0643,0.0779 0.0491,0.16338 -0.0393,0.22132 -0.0771,0.0505 -0.0977,0.0453 -0.46532,-0.11738 -0.21154,-0.0936 -0.39717,-0.16554 -0.41252,-0.15976 -0.0536,0.0202 -0.31139,0.37107 -0.28026,0.38145 0.0173,0.006 0.10558,0.0589 0.19624,0.11816 0.17131,0.11193 0.22163,0.21742 0.14677,0.30763 -0.0643,0.0774 -0.1627,0.0562 -0.4039,-0.0871 l -0.22709,-0.13491 -0.2551,0.12663 c -0.1403,0.0696 -0.25752,0.12664 -0.26048,0.12664 -0.003,0 0.0302,0.10433 0.0737,0.23185 0.1048,0.30737 0.11095,0.74649 0.0144,1.02719 -0.12972,0.37702 -0.35629,0.64632 -0.71331,0.84781 -0.10475,0.0591 -0.17798,0.12163 -0.16922,0.14446 0.0771,0.20089 0.0546,0.80775 -0.0332,0.89554 -0.0633,0.0633 -0.15869,0.0631 -0.22228,-5e-4 z m -6.39219,-2.22172 c -0.41525,-0.10052 -0.87775,-0.42333 -1.16438,-0.81268 l -0.13762,-0.18695 -0.24569,0.11481 c -0.44693,0.20885 -0.55771,0.24546 -0.62835,0.20766 -0.0922,-0.0493 -0.0861,-0.21581 0.0101,-0.2761 0.041,-0.0257 0.21763,-0.11089 0.39254,-0.18932 l 0.31802,-0.1426 -0.0781,-0.19224 c -0.043,-0.10573 -0.10348,-0.32643 -0.13449,-0.49043 -0.0422,-0.22328 -0.0692,-0.29794 -0.10741,-0.29715 -0.0281,5.8e-4 -0.20755,0.0225 -0.39883,0.0486 -0.47085,0.0644 -0.64996,0.0637 -0.67545,-0.003 -0.0325,-0.0846 -0.0232,-0.16874 0.0226,-0.20682 0.0235,-0.0195 0.26806,-0.0643 0.54345,-0.0996 0.27539,-0.0353 0.51699,-0.0742 0.53689,-0.0865 0.0199,-0.0123 0.0365,-0.0997 0.037,-0.1943 4.3e-4,-0.0946 0.0138,-0.22782 0.0296,-0.29614 l 0.0288,-0.1242 h -0.27568 c -0.30137,0 -0.37978,-0.0379 -0.37978,-0.18337 0,-0.11685 0.0921,-0.14785 0.4393,-0.14785 h 0.31118 l 0.0802,-0.17147 c 0.0441,-0.0943 0.14261,-0.26125 0.21892,-0.37098 l 0.13874,-0.19951 -0.1553,-0.1047 c -0.82801,-0.55824 -1.07145,-1.79001 -0.51839,-2.62298 l 0.11728,-0.17663 -0.15178,-0.17244 c -0.17559,-0.1995 -0.41389,-0.65145 -0.41389,-0.78497 0,-0.11058 0.0688,-0.17474 0.17174,-0.16009 0.0587,0.008 0.1081,0.0759 0.21652,0.29571 0.0773,0.15669 0.19805,0.34973 0.26837,0.42898 l 0.12787,0.14409 0.19538,-0.12969 c 0.27718,-0.18398 0.53875,-0.28069 0.87337,-0.32293 0.24536,-0.031 0.33515,-0.0278 0.58057,0.0204 0.15967,0.0314 0.33338,0.0793 0.38601,0.10653 0.0927,0.0479 0.0969,0.0466 0.13549,-0.0427 0.0239,-0.0553 0.0403,-0.26269 0.041,-0.51911 9.9e-4,-0.35396 0.0102,-0.43266 0.054,-0.4603 0.088,-0.0555 0.22482,-4.7e-4 0.25125,0.10113 0.0435,0.16731 0.0219,0.77727 -0.0337,0.95041 l -0.0528,0.16429 0.22513,0.23317 c 0.38503,0.3988 0.52829,0.72243 0.55773,1.25995 0.0272,0.49732 -0.0902,0.88777 -0.38353,1.27513 l -0.13791,0.18211 0.0917,0.0643 c 0.10485,0.0735 0.40859,0.37534 0.55551,0.55203 l 0.0993,0.11939 0.42113,-0.0333 c 0.45727,-0.0362 0.52284,-0.0204 0.52284,0.12577 0,0.11875 -0.0684,0.14767 -0.43136,0.18225 -0.18751,0.0179 -0.34549,0.0371 -0.35108,0.0426 -0.006,0.006 0.0268,0.10174 0.072,0.21366 0.0452,0.11192 0.10927,0.36457 0.14238,0.56146 l 0.0602,0.35797 0.39469,0.0166 0.39469,0.0166 0.0107,0.11245 c 0.007,0.0676 -0.007,0.12354 -0.0331,0.14026 -0.0241,0.0153 -0.20896,0.028 -0.41075,0.0283 l -0.36689,5.1e-4 -0.0405,0.26458 c -0.0458,0.29943 -0.12006,0.53397 -0.25034,0.79107 -0.0492,0.097 -0.0807,0.18508 -0.0702,0.19566 0.0106,0.0106 0.17926,0.088 0.37485,0.17202 0.31928,0.13718 0.3567,0.16216 0.36629,0.24445 0.0122,0.10463 -0.0425,0.18703 -0.12413,0.18703 -0.0306,0 -0.23073,-0.0755 -0.44471,-0.16768 l -0.38905,-0.16767 -0.19696,0.18235 c -0.445,0.412 -1.05199,0.57245 -1.63324,0.43175 z m 56.07006,5.31834 c -2.09345,-0.18431 -4.0517,-1.09503 -5.52722,-2.57055 -1.4161,-1.41611 -2.32122,-3.30253 -2.53615,-5.28579 -0.0514,-0.47459 -0.0433,-1.57921 0.0149,-2.03659 0.30605,-2.40224 1.55503,-4.55327 3.47765,-5.98927 1.37291,-1.02542 2.96694,-1.61227 4.7239,-1.73912 2.44388,-0.17644 4.93319,0.73842 6.71572,2.46813 1.51259,1.46777 2.43455,3.35629 2.65567,5.43979 0.059,0.55592 0.0237,1.80281 -0.0659,2.32546 -0.42445,2.47721 -1.81168,4.61405 -3.87765,5.97302 -0.78894,0.51895 -1.98419,1.023 -2.9147,1.22916 -0.79596,0.17635 -1.89976,0.25325 -2.66629,0.18576 z m 1.95418,-0.37846 c 3.85701,-0.60664 6.72963,-3.5565 7.24303,-7.43778 0.054,-0.40817 0.0528,-1.58423 -0.002,-1.9873 -0.27243,-2.00277 -1.12034,-3.7159 -2.50918,-5.06963 -0.45629,-0.44475 -0.78762,-0.71452 -1.26459,-1.02964 -1.07994,-0.71347 -2.30444,-1.16928 -3.64937,-1.35845 -0.46736,-0.0657 -1.74188,-0.0564 -2.20259,0.0162 -1.59078,0.25054 -2.99213,0.85494 -4.17716,1.80159 -1.78672,1.42732 -2.95542,3.61946 -3.15692,5.92147 -0.20447,2.33594 0.64106,4.79043 2.22931,6.47148 0.9257,0.9798 1.92242,1.66619 3.11687,2.14647 0.733,0.29473 1.48532,0.47598 2.43504,0.58664 0.26843,0.0313 1.62172,-0.0114 1.93762,-0.061 z m -2.72881,-1.09766 c -0.47801,-0.12856 -0.86828,-0.456 -1.0994,-0.92242 -0.13484,-0.27213 -0.1422,-0.3024 -0.15624,-0.64331 -0.0113,-0.27371 -0.001,-0.40383 0.0419,-0.55393 0.21041,-0.72884 0.80434,-1.21092 1.55422,-1.26153 1.31934,-0.0891 2.23459,1.27969 1.65366,2.47301 -0.22271,0.45747 -0.68483,0.82459 -1.16317,0.92404 -0.23822,0.0495 -0.61456,0.0423 -0.83097,-0.0159 z m 5.34541,-1.54899 c -0.46249,-0.21204 -0.518,-0.86068 -0.0989,-1.15526 0.19831,-0.13938 0.42219,-0.1562 0.65573,-0.0493 0.23907,0.10944 0.35358,0.27491 0.37589,0.54312 0.0195,0.23476 -0.0693,0.43237 -0.2639,0.58721 -0.10745,0.0855 -0.15883,0.10175 -0.34778,0.11004 -0.13772,0.006 -0.25934,-0.007 -0.32107,-0.0358 z m -9.87541,-2.20716 c -0.34229,-0.0723 -0.67597,-0.34375 -0.82584,-0.67172 -0.0801,-0.17536 -0.0944,-0.24893 -0.0944,-0.48802 0,-0.2391 0.0142,-0.31266 0.0944,-0.48803 0.35306,-0.77261 1.39015,-0.93053 1.95863,-0.29825 0.39372,0.43791 0.39132,1.13731 -0.005,1.57858 -0.27032,0.30066 -0.73176,0.45106 -1.12737,0.36744 z m 11.73022,-0.88211 c -0.45542,-0.11443 -0.78494,-0.43688 -0.89819,-0.87893 -0.13957,-0.5448 0.12548,-1.10402 0.6444,-1.35959 0.11946,-0.0588 0.22459,-0.0787 0.46428,-0.0877 0.30015,-0.0112 0.31748,-0.008 0.553,0.10855 0.36158,0.1787 0.56821,0.45041 0.64503,0.84815 0.13294,0.68828 -0.39974,1.34893 -1.11025,1.37698 -0.12761,0.005 -0.26183,0.002 -0.29827,-0.007 z m -6.14405,-0.12116 c -0.40938,-0.14008 -0.72494,-0.37518 -0.94149,-0.70142 -0.76576,-1.15367 -0.0101,-2.70201 1.3624,-2.79173 1.02039,-0.0667 1.85715,0.66563 1.92026,1.6806 0.0335,0.53937 -0.13666,0.97702 -0.53504,1.37576 -0.24386,0.24409 -0.5282,0.41075 -0.81249,0.47622 -0.26931,0.062 -0.75326,0.0428 -0.99364,-0.0394 z m -5.20009,-2.83972 c -0.3573,-0.0617 -0.76151,-0.28822 -0.99542,-0.55788 -0.68609,-0.79099 -0.50633,-2.01726 0.38028,-2.59401 0.27546,-0.1792 0.55746,-0.25942 0.90844,-0.25843 0.3503,9.9e-4 0.50668,0.0352 0.79336,0.17368 0.41579,0.20082 0.79594,0.67582 0.89922,1.12361 0.0493,0.21369 0.0411,0.64988 -0.0162,0.87021 -0.21951,0.84274 -1.0933,1.3941 -1.96964,1.24282 z m 9.05293,-0.0785 c -0.19681,-0.0642 -0.34615,-0.16384 -0.5065,-0.3378 -0.22559,-0.24475 -0.2826,-0.40454 -0.2826,-0.79224 0,-0.2849 0.0114,-0.35437 0.0815,-0.49682 0.11477,-0.23328 0.31333,-0.43591 0.54661,-0.55781 0.18547,-0.0969 0.22392,-0.10449 0.53116,-0.10453 0.29836,-4e-5 0.34858,0.009 0.50629,0.0922 0.24912,0.13122 0.41086,0.2893 0.54038,0.52815 0.10669,0.19674 0.11259,0.22498 0.11259,0.53884 0,0.30046 -0.009,0.34898 -0.0969,0.52257 -0.11519,0.22748 -0.3584,0.46534 -0.57489,0.56227 -0.19611,0.0878 -0.65328,0.11189 -0.85762,0.0452 z m 3.31798,-1.55882 c -0.28423,-0.10461 -0.47685,-0.43345 -0.43141,-0.73651 0.0259,-0.17255 0.18603,-0.39299 0.34809,-0.47913 0.21926,-0.11654 0.58061,-0.0699 0.77412,0.1 0.21157,0.1857 0.25325,0.646 0.0792,0.87424 -0.18519,0.2428 -0.49894,0.34117 -0.76997,0.24142 z m -8.57911,-0.85944 c -0.055,-0.024 -0.14656,-0.0966 -0.2035,-0.16147 -0.30472,-0.34705 -0.2029,-0.85235 0.20983,-1.0413 0.30701,-0.14056 0.62854,-0.0547 0.82233,0.21968 0.0883,0.125 0.0994,0.16738 0.0994,0.38038 0,0.20032 -0.0134,0.25924 -0.0814,0.35857 -0.13483,0.19677 -0.31201,0.29052 -0.54621,0.289 -0.11021,-7.1e-4 -0.24537,-0.0209 -0.30036,-0.0449 z m 6.22748,-1.44031 c -0.30403,-0.0803 -0.54205,-0.27037 -0.67707,-0.54056 -0.0881,-0.17623 -0.10125,-0.23769 -0.10097,-0.47066 2.6e-4,-0.21212 0.0167,-0.30318 0.079,-0.43695 0.30545,-0.656 1.21494,-0.80258 1.69344,-0.27294 0.19908,0.22036 0.26357,0.3975 0.26341,0.72346 -1.2e-4,0.24047 -0.013,0.306 -0.0882,0.44924 -0.10586,0.20166 -0.31194,0.3952 -0.51769,0.48621 -0.16419,0.0726 -0.49355,0.10405 -0.65195,0.0622 z m -4.11602,-0.28525 c -0.5248,-0.14716 -0.97242,-0.55471 -1.18958,-1.08311 -0.10492,-0.25528 -0.1421,-0.75488 -0.078,-1.04833 0.064,-0.29295 0.22906,-0.59537 0.45707,-0.83726 0.70594,-0.7489 1.89484,-0.74868 2.59949,4.8e-4 0.33774,0.35907 0.48803,0.73758 0.48803,1.22905 0,0.59307 -0.23937,1.08074 -0.70297,1.43215 -0.3331,0.25249 -0.56626,0.3314 -1.01856,0.34473 -0.26572,0.008 -0.43368,-0.004 -0.55545,-0.0377 z m -3.93253,-0.11417 c -0.27152,-0.0664 -0.53865,-0.2873 -0.68336,-0.56511 -0.0635,-0.12194 -0.0777,-0.20025 -0.078,-0.43058 -3.4e-4,-0.24154 0.0127,-0.30826 0.092,-0.46972 0.30696,-0.62509 1.16538,-0.76569 1.65929,-0.27178 0.42687,0.42687 0.38652,1.16528 -0.084,1.5372 -0.25198,0.19918 -0.59738,0.27543 -0.9059,0.19999 z m 29.68685,12.42684 c -0.0742,-0.0859 -0.88762,-1.75909 -0.88762,-1.82576 0,-0.16523 0.20253,-0.1848 0.30062,-0.029 0.11273,0.179 0.85863,1.70808 0.85863,1.76017 0,0.0667 -0.0917,0.1526 -0.16284,0.1526 -0.0323,0 -0.0813,-0.0261 -0.10879,-0.058 z m -1.73095,-3.37358 c -0.0292,-0.0292 -0.0845,-0.11493 -0.12278,-0.19045 -0.0383,-0.0755 -0.24648,-0.45173 -0.46261,-0.83602 -0.21613,-0.38429 -0.39297,-0.72785 -0.39297,-0.76345 0,-0.13989 0.17663,-0.19592 0.272,-0.0863 0.0491,0.0564 0.74148,1.27628 0.88286,1.55539 0.0973,0.19216 0.0928,0.30092 -0.0143,0.34164 -0.10742,0.0408 -0.0995,0.0419 -0.16218,-0.0208 z m -1.95917,-3.38323 c -0.30343,-0.43877 -1.00648,-1.59224 -1.00648,-1.65129 0,-0.0921 0.0755,-0.1535 0.17206,-0.13982 0.0859,0.0122 0.17122,0.13282 0.76908,1.08683 0.21105,0.33677 0.38372,0.64306 0.38372,0.68065 0,0.18518 -0.19657,0.19977 -0.31838,0.0236 z m -49.86084,-2.51418 c -0.7384,-0.0712 -1.63169,-0.26668 -2.23571,-0.48919 -0.5274,-0.19429 -1.35339,-0.6164 -1.83825,-0.93942 -2.027,-1.3504 -3.36357,-3.41587 -3.7782,-5.83864 -0.09,-0.52594 -0.1247,-1.741413 -0.0654,-2.29194 0.12035,-1.117693 0.41873,-2.110264 0.9333,-3.104598 0.42287,-0.817129 0.90523,-1.475278 1.56738,-2.13856 1.34739,-1.349712 2.987,-2.177429 4.89175,-2.46948 0.68046,-0.104335 1.8272,-0.104335 2.50767,0 1.48102,0.227082 2.78339,0.770336 3.96683,1.654679 1.30676,0.976493 2.35855,2.383593 2.93799,3.930448 0.60621,1.618346 0.69752,3.50807 0.25304,5.236781 -0.33947,1.32031 -1.09905,2.69766 -2.03413,3.68852 -1.51081,1.60093 -3.3908,2.53293 -5.54476,2.7488 -0.3142,0.0315 -1.28443,0.0393 -1.56148,0.0126 z m 1.772,-0.36237 c 1.53328,-0.18808 2.98341,-0.80695 4.21444,-1.79859 0.41839,-0.33703 1.11827,-1.05802 1.42829,-1.47138 2.12778,-2.83699 2.25463,-6.646419 0.32005,-9.611076 -2.43971,-3.738742 -7.41265,-4.902712 -11.24852,-2.632836 -1.40153,0.829361 -2.55031,2.070895 -3.25926,3.522439 -0.40868,0.836761 -0.64544,1.588174 -0.78417,2.488799 -0.0944,0.613023 -0.10183,1.694101 -0.0156,2.285394 0.28722,1.97043 1.11427,3.59015 2.53008,4.95493 1.81812,1.75259 4.2874,2.57233 6.81473,2.26232 z m -1.92105,-1.7161 c -2.03261,-0.34018 -3.59533,-1.82852 -4.03069,-3.83883 -0.0603,-0.27852 -0.073,-0.4416 -0.0726,-0.93365 4.7e-4,-0.55984 0.007,-0.61941 0.10219,-0.97709 0.3366,-1.26069 1.14071,-2.944503 2.44379,-5.117282 0.75119,-1.252543 1.98094,-3.140712 2.13521,-3.278404 0.0503,-0.04485 0.11694,-0.06447 0.21076,-0.06201 0.11754,0.0031 0.15506,0.02366 0.26122,0.143288 0.28538,0.321584 1.24778,1.780924 1.97737,2.998398 1.36402,2.276151 2.24241,4.17067 2.52617,5.4485 0.10551,0.47509 0.10553,1.24627 6e-5,1.74233 -0.21325,1.00296 -0.62559,1.76446 -1.34451,2.48301 -0.70869,0.70832 -1.44405,1.11581 -2.42042,1.34124 -0.38578,0.0891 -1.38886,0.11739 -1.78857,0.0505 z m 1.6077,-0.34966 c 0.65459,-0.12639 1.35427,-0.43137 1.85351,-0.80791 1.21331,-0.91513 1.90195,-2.31778 1.84533,-3.75864 -0.0195,-0.49578 -0.0881,-0.81473 -0.31838,-1.479227 -0.5736,-1.65545 -1.96821,-4.239588 -3.5372,-6.554237 -0.4269,-0.629786 -0.63607,-0.914682 -0.67156,-0.914682 -0.0321,0 -1.18574,1.743927 -1.66526,2.517241 -1.56984,2.53164 -2.54863,4.546342 -2.84255,5.851015 -0.17747,0.78775 -0.0243,1.84748 0.38566,2.66824 0.92601,1.85391 2.94619,2.86521 4.95045,2.4782 z m -1.39241,-0.22188 c -1.80395,-0.28412 -3.23728,-1.55743 -3.6786,-3.26792 -0.0723,-0.28007 -0.0639,-0.37162 0.0369,-0.40361 0.11894,-0.0378 0.19373,0.014 0.23122,0.15986 0.21697,0.84424 0.60738,1.53101 1.18296,2.08091 1.1978,1.14438 2.94697,1.4608 4.45725,0.80632 0.14632,-0.0634 0.29024,-0.11529 0.31982,-0.11529 0.081,0 0.13328,0.0684 0.13328,0.17411 0,0.0855 -0.0236,0.1054 -0.24408,0.20586 -0.60006,0.27346 -1.14882,0.38381 -1.8757,0.37718 -0.26414,-0.002 -0.51752,-0.0102 -0.56307,-0.0174 z m -3.62445,-5.16383 c -0.0286,-0.0286 -0.0521,-0.08 -0.0521,-0.11422 0,-0.16053 0.29605,-0.957209 0.62746,-1.688542 0.28159,-0.621358 0.87361,-1.721222 0.93738,-1.741462 0.0926,-0.0294 0.18881,0.01701 0.20997,0.101327 0.0144,0.05747 -0.0509,0.207893 -0.25018,0.576318 -0.47832,0.88419 -0.88422,1.788425 -1.10798,2.468273 -0.0654,0.198616 -0.13552,0.381206 -0.15588,0.405736 -0.0496,0.0598 -0.14489,0.0564 -0.20872,-0.007 z m 51.39354,7.23115 c -0.19925,-0.24629 -1.167,-1.63964 -1.167,-1.68021 0,-0.08 0.0681,-0.13319 0.17061,-0.13319 0.08,0 0.14308,0.0717 0.51688,0.5879 0.6969,0.96233 0.73674,1.0225 0.73674,1.11262 0,0.12749 -0.18112,0.20697 -0.25723,0.11288 z m -2.30498,-3.09687 c -0.48209,-0.55864 -1.24677,-1.50578 -1.24677,-1.54425 0,-0.0735 0.0939,-0.15323 0.18042,-0.15323 0.0588,0 0.20168,0.15068 0.62049,0.65415 0.85694,1.03015 0.81752,0.96893 0.69523,1.0796 -0.0868,0.0785 -0.15944,0.0679 -0.24937,-0.0363 z m -3.14327,-3.51116 c -0.71151,-0.71207 -0.77732,-0.7987 -0.68037,-0.89566 0.11142,-0.111423 0.19233,-0.0525 0.91074,0.66307 0.7218,0.71894 0.78024,0.79913 0.66585,0.91351 -0.0976,0.0976 -0.18359,0.0323 -0.89622,-0.68092 z m -60.4225,0.37647 c -0.0599,-0.0438 -0.061,-0.0643 -0.0217,-0.40574 0.0228,-0.1978 0.0744,-0.53798 0.11468,-0.75596 0.067,-0.362029 0.0811,-0.400705 0.1637,-0.446921 0.0842,-0.04713 0.0952,-0.04578 0.16079,0.0198 l 0.0704,0.0704 -0.0851,0.475891 c -0.0468,0.26173 -0.10074,0.59512 -0.11983,0.74086 -0.0428,0.32674 -0.12653,0.41603 -0.28293,0.30167 z m 58.37702,-2.268665 c -0.0276,-0.01117 -0.19155,-0.133015 -0.36434,-0.270775 -0.17278,-0.13776 -0.50046,-0.389144 -0.72817,-0.558631 -0.43192,-0.321482 -0.52994,-0.410998 -0.52994,-0.483942 0,-0.06595 0.0954,-0.147743 0.17233,-0.147743 0.0648,0 0.7407,0.491766 1.35126,0.98312 0.25291,0.203528 0.28153,0.237929 0.28153,0.338323 0,0.1182 -0.0816,0.180552 -0.18267,0.139648 z m -57.63936,-0.900677 c -0.0337,-0.01962 -0.058,-0.07319 -0.058,-0.127899 0,-0.139376 0.45202,-1.307059 0.6835,-1.765659 0.0682,-0.135161 0.0934,-0.157328 0.17893,-0.157328 0.0721,0 0.10922,0.02128 0.13476,0.07735 0.0298,0.0654 0.002,0.153692 -0.17833,0.571347 -0.11746,0.271698 -0.2844,0.687757 -0.37096,0.924577 -0.18251,0.499302 -0.23736,0.566479 -0.38993,0.47761 z m 53.73307,-1.905303 c -0.44547,-0.298216 -0.823,-0.565556 -0.83897,-0.59409 -0.0412,-0.0736 0.0583,-0.214124 0.15091,-0.213147 0.0406,4.28e-4 0.44638,0.250082 0.9018,0.554787 0.84988,0.568626 0.9144,0.628726 0.80996,0.754561 -0.0849,0.102315 -0.21931,0.0364 -1.0237,-0.502111 z m -2.73409,-1.721818 c -0.20038,-0.120867 -0.573,-0.339752 -0.82803,-0.486412 -0.25504,-0.14666 -0.48234,-0.289432 -0.50511,-0.317272 -0.0649,-0.07933 -0.0489,-0.164003 0.0422,-0.223707 0.0911,-0.05973 0.0881,-0.06126 1.44881,0.735805 0.39901,0.233737 0.47513,0.317872 0.39844,0.440438 -0.0667,0.106562 -0.18565,0.07473 -0.55633,-0.148852 z m -49.44502,0.163047 c -0.087,-0.08696 0.0115,-0.284261 0.56724,-1.137175 0.44444,-0.682062 0.48912,-0.73448 0.61553,-0.72218 0.0882,0.0086 0.1049,0.02484 0.11327,0.110272 0.008,0.08056 -0.0576,0.200674 -0.33406,0.61275 -0.18914,0.281898 -0.43014,0.657864 -0.53557,0.835478 -0.17903,0.301626 -0.1987,0.322936 -0.29801,0.322936 -0.0585,0 -0.11626,-0.0099 -0.1284,-0.02208 z m 46.34816,-1.919072 c -0.082,-0.04705 -0.4546,-0.242946 -0.82804,-0.435324 -0.37345,-0.192378 -0.70508,-0.372131 -0.73696,-0.399451 -0.11001,-0.09428 -0.0535,-0.271259 0.0867,-0.271259 0.0582,0 1.03338,0.488125 1.61908,0.810448 0.19069,0.104942 0.22357,0.136228 0.22357,0.212737 0,0.186457 -0.13165,0.216396 -0.36433,0.08285 z m -44.13217,-1.191204 c -0.0286,-0.02863 -0.0521,-0.07937 -0.0521,-0.112771 0,-0.11878 1.3521,-1.557503 1.46373,-1.557503 0.0777,0 0.15923,0.09077 0.15923,0.177385 0,0.04535 -0.0707,0.142309 -0.1854,0.254327 -0.16858,0.164607 -0.64915,0.67783 -1.04695,1.118078 -0.16196,0.179244 -0.24887,0.210173 -0.33856,0.120484 z m 40.59264,-0.594354 c -0.1706,-0.08152 -0.57714,-0.27019 -0.90342,-0.419256 -0.48423,-0.221227 -0.59685,-0.285403 -0.61288,-0.349256 -0.0208,-0.08283 0.0629,-0.208043 0.13912,-0.208043 0.0227,0 0.35202,0.143286 0.73182,0.318415 0.37981,0.175128 0.77253,0.35609 0.87273,0.402137 0.22801,0.10479 0.29809,0.164752 0.29809,0.255044 0,0.08985 -0.0599,0.150733 -0.14739,0.149861 -0.0374,-3.72e-4 -0.20748,-0.06738 -0.37807,-0.148902 z m -4.05987,-1.772914 c -0.49074,-0.198679 -0.91373,-0.382704 -0.93998,-0.408945 -0.0701,-0.07014 -0.0242,-0.213094 0.0766,-0.238395 0.059,-0.0148 0.32727,0.07791 0.9683,0.334627 0.48769,0.195308 0.91279,0.378011 0.94467,0.406006 0.11122,0.09767 0.0525,0.274963 -0.0894,0.270214 -0.0373,-0.0012 -0.46942,-0.164827 -0.96017,-0.363507 z m -33.79598,-0.270157 c -0.0219,-0.02186 -0.0398,-0.0793 -0.0398,-0.127645 0,-0.07467 0.0735,-0.142762 0.48854,-0.452417 0.77691,-0.579675 1.14927,-0.816188 1.24654,-0.791773 0.0887,0.02227 0.1361,0.117863 0.10453,0.210923 -0.0108,0.03188 -0.17778,0.161119 -0.37103,0.287198 -0.19325,0.126079 -0.55734,0.383185 -0.80908,0.571347 -0.45076,0.33692 -0.54112,0.381003 -0.61975,0.302367 z m 30.24996,-1.04731 c -0.51007,-0.176337 -0.94604,-0.33267 -0.96881,-0.347408 -0.0526,-0.03407 -0.0536,-0.163006 -0.002,-0.214991 0.0723,-0.07227 0.20997,-0.04214 0.94152,0.205989 1.08149,0.366822 1.10208,0.375421 1.12584,0.47008 0.0212,0.08462 -0.0611,0.21389 -0.13323,0.209265 -0.0199,-0.0013 -0.4536,-0.146599 -0.96367,-0.322935 z m -3.11343,-0.969739 c -0.18217,-0.05376 -0.58212,-0.163655 -0.88878,-0.244218 -0.30666,-0.08056 -0.57867,-0.163997 -0.60447,-0.185409 -0.0573,-0.04755 -0.0612,-0.16889 -0.007,-0.222924 0.0219,-0.02186 0.0784,-0.03975 0.12558,-0.03975 0.0811,0 1.67528,0.422163 1.86155,0.492983 0.10345,0.03933 0.14384,0.140526 0.0936,0.234441 -0.0493,0.09219 -0.17454,0.08461 -0.5803,-0.03513 z m -23.93036,-0.02987 c -0.0811,-0.0811 -0.0822,-0.106073 -0.008,-0.194611 0.0662,-0.07932 0.81603,-0.417962 1.44173,-0.651106 0.36061,-0.134371 0.43536,-0.152188 0.5051,-0.120407 0.0609,0.02775 0.0819,0.06304 0.0819,0.13791 0,0.11537 -0.0163,0.124871 -0.5465,0.317701 -0.18217,0.06626 -0.56311,0.223134 -0.84653,0.348613 -0.28342,0.125478 -0.52562,0.228143 -0.53822,0.228143 -0.0126,0 -0.0527,-0.02981 -0.0892,-0.06624 z m 19.67828,-0.995135 c -0.51695,-0.105847 -0.95408,-0.206616 -0.97139,-0.223932 -0.0471,-0.04711 -0.0175,-0.210159 0.0452,-0.249453 0.0406,-0.02544 0.30338,0.0152 1.0076,0.15586 0.52395,0.10465 0.97988,0.204859 1.01319,0.222686 0.0693,0.03707 0.0821,0.194061 0.0208,0.25531 -0.0558,0.05575 -0.0681,0.05398 -1.11545,-0.160471 z m -16.08222,-0.216164 c -0.0649,-0.0649 -0.0668,-0.160271 -0.004,-0.222578 0.0474,-0.04736 0.921,-0.230299 1.63555,-0.342489 0.40967,-0.06432 0.47887,-0.05131 0.49636,0.09334 0.006,0.04526 -0.0114,0.100028 -0.0375,0.121697 -0.0261,0.02167 -0.29887,0.08312 -0.60614,0.136556 -0.30727,0.05344 -0.7433,0.135038 -0.96897,0.181337 -0.485,0.09951 -0.44958,0.0973 -0.51474,0.03213 z m 12.30231,-0.384079 c -0.44632,-0.05377 -0.84874,-0.108323 -0.89429,-0.12123 -0.0617,-0.01749 -0.0853,-0.04935 -0.0928,-0.125055 -0.0181,-0.18425 0.0299,-0.194447 0.61483,-0.130699 0.88916,0.0969 1.47319,0.182285 1.52159,0.22245 0.0265,0.02196 0.0421,0.08242 0.0364,0.140698 -0.01,0.09991 -0.014,0.102291 -0.19214,0.106893 -0.1002,0.0026 -0.54734,-0.03929 -0.99365,-0.09306 z m -8.58074,-0.230495 c -0.0269,-0.0502 -0.0277,-0.09235 -0.003,-0.146754 0.0419,-0.09206 0.0729,-0.09714 0.99881,-0.164145 1.08929,-0.07883 1.19238,-0.06998 1.19238,0.102367 0,0.127782 -0.0746,0.149179 -0.63503,0.182196 -0.29743,0.01752 -0.70474,0.04641 -0.90513,0.0642 -0.54229,0.04814 -0.60401,0.04453 -0.64811,-0.03787 z m 4.64244,-0.06732 c -0.48112,-0.01752 -0.79209,-0.04226 -0.81976,-0.06522 -0.06,-0.04982 -0.0564,-0.176524 0.007,-0.228738 0.0686,-0.05692 1.93922,-0.01687 2.06719,0.04426 0.0938,0.0448 0.1274,0.166586 0.0663,0.240226 -0.0447,0.05382 -0.0927,0.05417 -1.32017,0.0095 z"
       id="path2" /></g></svg>
